<svg id="Layer_1" data-name="Layer 1" xmlns="http://www.w3.org/2000/svg" viewBox="0 0 900 759.61"><title>5</title><path d="M243.78,298c-1.66,15.88-3.27,30.77-4.76,45.66q-6.17,62.08-12.27,124.16c-4.1,41.38-8.3,82.76-12.33,124.15-1.9,19.53-3.52,39.1-5.22,58.65a54,54,0,0,0-.15,6.49c.2,6.08,2.8,10.62,8.54,13.18,7.41,3.3,11.13,9.07,11,17.2-.49,40.06-.94,80.12-1.6,120.18-.1,5.88,1.41,10.3,7,12.79.14.06.26.17.4.23,10.3,5,15.54,12.67,13.74,24.51-.51,3.33,0,6.81-.34,10.19-.44,4.44-2.65,5.65-6.69,3.66-2.62-1.29-5-3-7.55-4.52-1.82-1.06-3.7-2-5.55-3l-1.21.85,12.3,27.33c-11.47,1.62-16-9-25.16-13l4.59,10.56c-10.91,1.31-15.37-9.22-24.55-12.29l4.16,10.87c-11.59,1.89-14.84-10-24.09-13.23l4.23,11.12c-11.05,1.71-14.72-9.23-23.39-12.76l4.35,11.3-1,1.37c-3.34-1.51-7.28-2.33-9.92-4.64-26.41-23.11-52.78-46.29-78.81-69.83-15.58-14.08-21-32.26-19.15-52.9,1-10.82,1.88-21.85,8-31.11C62,709.72,66.48,703.85,72,701c29.49-15.17,39.28-42.56,32.48-74.78-3.26-15.47-3.57-31.57-4.85-47.42-.3-3.76.7-7.67,1.4-11.46a8,8,0,0,1,6-6.75c2.14-.7,4.52-4,4.86-6.39,2.54-17.6,4.59-35.26,6.78-52.9.39-3.14.59-5.88-3.06-7.85-1.26-.68-1.62-4.14-1.41-6.22q3.74-37.38,7.8-74.73c3.26-30.13,6.73-60.23,9.87-90.37a35.6,35.6,0,0,1,8-19.4,21.33,21.33,0,0,0,4.87-13.62c1-37,2.21-73.9,3.29-110.85.13-4.32-.37-8.67-.1-13,1.07-17,9.7-29.29,24.43-37.42a60.89,60.89,0,0,1,34.87-7.47c10.27.81,15.77,6.85,16.68,17a10.19,10.19,0,0,0,3.77,6.79c23.65,15.81,47.48,31.35,71.26,47,5.94,3.9,11.72,8.09,17.88,11.61,2.46,1.41,5.75,1.34,8.65,2,3.22.74,6.94.76,9.54,2.47q37.22,24.44,74.1,49.36c45.28,30.48,90.75,60.61,138.44,87.29,25.46,14.25,44.22,34.65,55.38,62.1,12.39,30.5,25.75,60.61,38.57,90.93,1.54,3.65,3.69,5.36,7.74,5,23.27-1.87,46.56-3.5,69.82-5.47,20.77-1.77,41.36-.47,61.93,2.63,10.23,1.54,20.54,2.55,30.84,3.52,12.27,1.16,23.46,13.1,23.31,25.41-.11,9.28-.5,18.55-.71,27.83-.14,6.34.4,6.84,6.52,7.6,7.52.93,15,2,22.52,3,9.48,1.2,16,5.9,19.08,15.22,1.47,4.55,3.39,9,4.89,13.5,1.24,3.78,3.42,5.82,7.58,6.3,10.75,1.24,21.44,3,32.18,4.26a11.35,11.35,0,0,1,9.45,6.44c5.26,10,7.08,20.78,7.19,31.83.23,24.59.14,49.19.12,73.79,0,9.8-2.93,12.55-12.89,12.51Q838,730,745,729.54c-6,0-10.1,2.3-12.74,7.46s-1.13,8,4.74,8c20.58.16,41.15,0,61.72.39,22.71.42,45.52-.49,67.94,4.37,17.22,3.73,34.41,7.59,51.62,11.37,2.72.6,5.46,1.08,8.18,1.65,17.68,3.68,26.36,15.84,22.8,33.49-2.74,13.62-6.47,27.06-10.26,40.44-2.58,9.11-9.43,14.22-18.61,15.21-15.05,1.64-30.19,2.62-45.29,3.82q-38.37,3.06-76.76,6c-32.21,2.48-64.4,5.77-96.67,7-19.52.76-39.19-1.34-58.74-2.79-14-1-27.94-3.12-41.91-4.75a27.25,27.25,0,0,1-18-9.62c-3-3.53-6.4-4.79-11-4.53-27.17,1.55-54.34,3.08-81.53,4.31-30.75,1.39-61.55,3.13-91.9-4.15A98.92,98.92,0,0,1,384.9,843c-13.33-5.36-21.62-15-24.17-29.35-3.15-17.8,0-33.75,12.78-47.3,6.58-7,15.09-9.56,24-11,31.74-5.17,63.43-10.75,95.31-14.78,14.77-1.86,29.94-.67,44.93-.57,17.78.12,35.56.6,53.35.79,1.32,0,2.66-1.1,4-1.69-.79-1.1-1.59-2.2-2.38-3.31-1-1.43-2.85-2.82-2.92-4.29-.27-5.29-3.23-6.79-7.88-7-18.54-.84-37.07-1.79-55.6-2.7-4.79-.23-9.58-.38-14.36-.74-8.53-.66-14.12-7-12.75-15.48,2.25-13.88,4.93-27.69,7.79-41.46,1.43-6.88,4.68-9.24,11.78-9.46,8.81-.27,17.63-.4,26.45-.44,3.8,0,5.64-1.76,6.14-5.43,1.47-10.87,3.23-21.71,4.44-32.61a28.45,28.45,0,0,0-.91-10.9c-7.75-26.38-15.83-52.67-23.54-79.07-.61-2.09.82-4.74,1.19-7.15.29-1.88,1-3.93.53-5.64-4.68-17.46-9.54-34.88-14.39-52.29-2.64-9.47-9.16-16.41-16.75-21.61a485.75,485.75,0,0,0-41.72-25.78c-34.05-18.59-68.45-36.56-102.72-54.76q-49.37-26.21-98.73-52.4C254,304,249.4,301.19,243.78,298ZM635.61,625.52a24.21,24.21,0,0,0,3.18.38c22.57-.55,45.13-1.2,67.71-1.63,3.35-.07,3.75-2,4-4.4q1.47-11.5,2.84-23c3-25.63,6.06-51.25,8.92-76.89.92-8.22-2.53-11.89-10.54-11.27-16.79,1.32-33.57,2.74-50.33,4.43-10.18,1-13.27,4.39-14.51,14.71q-5,42.1-10,84.24C636.42,616.49,636.06,620.92,635.61,625.52ZM400,278.83l.4-.76c-1.32-1-2.57-2.15-4-3.07-14.81-9.84-29.84-19.35-44.4-29.54-14.21-10-30.79-16.76-41.84-31a7.31,7.31,0,0,0-1.9-1.32q-39.69-25.72-79.4-51.44c-3.29-2.13-6.69-4.08-10.65-6.5,0,7.09-.36,13.26.07,19.37,1,14.95,4.89,28.94,17.85,38.11,5.71,4.05,12.32,7.05,18.87,9.66q58.18,23.13,116.54,45.81C381,271.85,390.51,275.28,400,278.83Zm381.2,324c.39-.81.74-1.22.75-1.62,0-23.34.09-46.67,0-70,0-4.86-3-7.54-7.88-8.15-9.34-1.19-18.68-2.42-28-3.61-7.64-1-9.32.48-9.94,8.1-1,12.93-2.17,25.85-3.23,38.78-.75,9.08-1.42,18.18-2.18,27.26-.26,3.11.44,4.83,4.14,4.93,4.93.14,9.84,1,14.76,1.47C760.12,600.93,770.7,601.85,781.19,602.79Zm-627.54-236-.91,0a3.57,3.57,0,0,0-.35.84q-8,61.83-16,123.67c-.22,1.72-1.27,3.35-2,5-1.08,2.46-2.84,4.8-3.22,7.35-2,13.45-3.7,26.94-5.42,40.42-.59,4.67-.93,9.38-1.47,14.92,16.11-3.73,23.57,9.92,35.37,16.53C157.64,505.34,155.65,436.08,153.65,366.83ZM709.7,640c-25.27,0-49.79,0-74.31.16-1.07,0-2.78,2.1-3.07,3.47-1.4,6.48-2.35,13.06-3.58,19.58-1.08,5.68.14,7.4,5.94,7.62,6.33.23,12.66.5,19,.47,14.34-.07,28.7-.16,43-.64,2.17-.07,5.66-1.87,6.17-3.58C705.61,658,707.6,648.63,709.7,640ZM828.9,758.6c0-.41,0-.82,0-1.23-1.83,0-3.66-.14-5.47,0-26.16,2.37-52.33,4.63-78.46,7.24-18.4,1.85-36.37,5.52-52.46,15.41-5.75,3.54-10.69,7.86-13.92,13.93-7.87,14.81-7.55,29.76-.1,44.47,2.4,4.73,6.31,8.71,9.53,13-.58-6.83-2.48-12.86-3.46-19-2-12.34-1.37-24.41,6.32-35.08,7.15-9.92,17.68-14.65,28.76-18.48,27-9.32,55-14.14,83.34-17.15C811.6,760.82,820.25,759.66,828.9,758.6ZM796.38,562.16h-1.09c0,10.19-.07,20.37,0,30.55,0,4.46,1.69,5.71,6.13,5.22,8.9-1,13.71-6,14.18-15.3q1-20.34,1.59-40.69c.38-13.93.26-13.94-13.66-15.52-5.53-.63-7.07.55-7.14,6.14C796.29,542.42,796.38,552.29,796.38,562.16ZM196.61,839.88c-4.16-4.3-8.45-8.48-12.45-12.92-8.67-9.62-18.16-18.7-25.57-29.24-15.48-22-16.05-46.36-8.31-71.39q2.72-8.76,5.4-17.53a12.63,12.63,0,0,0-5.33,4.47c-3.69,5.87-7.87,11.59-10.54,17.92-9.08,21.62-9.07,42.85,3.86,63.35S175.21,828.9,196.61,839.88ZM599.1,589.26c-20.8-35.58-41.09-70.27-61.37-105l-1.32.6c2.61,9.31,5.17,18.64,7.9,27.92.31,1.05,1.43,2.48,2.34,2.61,3.91.58,4.69,3.5,5.59,6.51,5.55,18.64,11.21,37.24,16.62,55.92,1.83,6.29,5.6,9.64,12.09,10.26,4.3.41,8.56,1.19,12.86,1.63C595.19,589.89,596.64,589.51,599.1,589.26Zm-44.79,166c0-.33,0-.67,0-1-1.81,0-3.62-.07-5.43,0-14.05.68-28.17.73-42.13,2.23q-31.54,3.38-62.89,8.54c-9.73,1.6-19.32,5-27.05,11.52-12.95,10.87-14.45,32.82-3.66,48.34,2.19,3.17,4.81,6,7.24,9l1.05-.7c-1.37-5.67-3-11.29-4.05-17-4.39-25,2.41-36.41,24.25-42.94,26.93-8.06,54.52-12.29,82.39-15.13C534.08,757.16,544.2,756.26,554.31,755.3ZM139,595.33a18,18,0,0,0-.18,3.46c2.28,12.43,4.56,24.86,7,37.27,1.2,6.17,5.64,9.23,11.24,11.09,3.17,1.05,4.7.22,4.56-3.31-.4-10.79-.56-21.59-1.22-32.36-.13-2.2-1.46-5.17-3.19-6.27C151.48,601.63,145.38,598.75,139,595.33Zm642.76,23.39.12-2.26-53.74-6.13c-1.7,18.15-3.34,35.62-5,53a7,7,0,0,0,1.7.65c12.21,0,24.42.07,36.63,0,1,0,2.09-.91,3.13-1.4-.1-.48-.21-1-.32-1.44H729.32c1.65-15.9,3.22-31,4.79-46.18C750.47,615.4,766,619.12,781.71,618.72Zm136,20.34c0,5.73-.23,10.67.15,15.56a5,5,0,0,0,3.27,3.45c4.67.71,9.43.79,14.46,1.13v-19Zm-6.5,18.3V638.27l-17.3-1V656ZM617.87,769.06c-41.31,1.52-54.93,26.47-43.12,59.36C571.1,795.54,582.71,773.8,617.87,769.06Zm294-156.43c1.87,5.48,3.19,9.73,4.82,13.86.45,1.16,1.66,2.62,2.75,2.84,5.22,1,10.52,1.69,16.84,2.64-1.82-5.38-3.18-9.75-4.82-14a4.29,4.29,0,0,0-2.64-2.33C923.58,614.54,918.29,613.73,911.85,612.63ZM888,610.76c.75,15.83,5.65,18,22.47,17.77-3.2-14.88-3.94-15.57-18.45-17.24C890.82,611.15,889.6,611,888,610.76Zm23.93,234.29c7,.73,13.51-1.09,16.72-6.84,4.72-8.43,7.84-17.75,11.64-26.7l-1.77-.91C933,824.66,928.13,839.3,911.94,845.05Z" transform="translate(-50 -120.2)"/></svg>