<?xml version="1.0" encoding="UTF-8" standalone="no"?>
<svg
   xmlns:dc="http://purl.org/dc/elements/1.1/"
   xmlns:cc="http://creativecommons.org/ns#"
   xmlns:rdf="http://www.w3.org/1999/02/22-rdf-syntax-ns#"
   xmlns:svg="http://www.w3.org/2000/svg"
   xmlns="http://www.w3.org/2000/svg"
   viewBox="0 0 900 729.25"
   height="729.25"
   width="900"
   xml:space="preserve"
   version="1.1"
   id="svg2"><metadata
     id="metadata8"><rdf:RDF><cc:Work
         rdf:about=""><dc:format>image/svg+xml</dc:format><dc:type
           rdf:resource="http://purl.org/dc/dcmitype/StillImage" /></cc:Work></rdf:RDF></metadata><defs
     id="defs6" /><g
     transform="matrix(1.25,0,0,-1.25,0,729.25)"
     id="g10"><g
       transform="scale(0.1,0.1)"
       id="g12"><path
         id="path14"
         style="fill:#231f20;fill-opacity:1;fill-rule:nonzero;stroke:none"
         d="m 6252.11,3858.57 0.45,-0.05 c 21.11,-2.52 42.06,-5.55 62.69,-9.51 20.67,-3.67 41.05,-8.18 60.93,-13.93 34.61,-9.95 67.46,-24.02 97.97,-41.74 l -1999.28,-18.26 c -2,-0.02 -3.8,-1.23 -4.57,-3.07 -0.76,-1.86 -0.35,-3.99 1.05,-5.42 19.98,-20.42 39.81,-43.1 58.94,-67.4 0.95,-1.21 2.4,-1.91 3.93,-1.91 0.03,0 0.05,0 0.08,0 l 2028.38,30.6 c 15.6,-14.62 30.32,-30.27 44.3,-46.68 l -2036.85,-22.75 c -1.85,-0.02 -3.54,-1.06 -4.39,-2.7 -0.85,-1.65 -0.72,-3.62 0.32,-5.15 22.58,-32.69 44.17,-68.05 64.17,-105.08 0.87,-1.62 2.56,-2.63 4.4,-2.63 0.04,0 0.09,0 0.13,0 l 2035.73,51.34 c 24.49,-38.65 47.09,-78.76 67.84,-120.05 l -2037.86,-62.57 c -1.63,-0.05 -3.14,-0.89 -4.03,-2.26 -0.89,-1.36 -1.07,-3.08 -0.45,-4.6 16.47,-40.88 31.94,-84.51 45.98,-129.66 0.66,-2.1 2.59,-3.52 4.78,-3.52 0.08,0 0.16,0 0.25,0.01 l 2036.96,103.68 c 5.71,-13.15 11.39,-26.31 16.83,-39.58 8,-19.23 15.22,-38.21 22.05,-57.81 2.24,-6.37 4.34,-12.81 6.47,-19.23 l -2050.88,-92.12 c -1.5,-0.07 -2.88,-0.8 -3.78,-2.01 -0.9,-1.19 -1.21,-2.72 -0.85,-4.18 11.21,-45.58 21.28,-93 29.92,-140.95 0.43,-2.39 2.51,-4.11 4.91,-4.11 0.1,0 0.2,0.01 0.29,0.01 l 2057.5,114.22 c 9.28,-36.18 17.73,-72.65 25.43,-109.38 L 4832.9,2872.47 c -1.39,-0.09 -2.68,-0.77 -3.54,-1.85 -0.87,-1.1 -1.25,-2.49 -1.04,-3.87 6.06,-40.48 11.87,-81.39 17.25,-121.59 0.34,-2.5 2.47,-4.34 4.95,-4.34 0.12,0 0.26,0.01 0.4,0.02 l 2063.4,163.53 c 8.7,-46.95 16.22,-94.15 23.37,-141.48 L 4870.5,2584.65 c -1.35,-0.11 -2.59,-0.76 -3.44,-1.81 -0.86,-1.04 -1.25,-2.38 -1.1,-3.73 5.16,-46.33 9.94,-92.94 14.17,-138.53 0.11,-1.32 0.76,-2.54 1.78,-3.39 0.9,-0.74 2.03,-1.15 3.2,-1.15 0.15,0 0.31,0.01 0.47,0.02 l 2071.45,194.75 c 5.24,-38.22 10.11,-76.52 14.63,-114.88 L 4897.62,2286.01 c -2.67,-0.29 -4.62,-2.65 -4.44,-5.32 3.28,-46.86 6.1,-93.8 8.33,-139.53 0.07,-1.39 0.72,-2.69 1.78,-3.59 0.91,-0.76 2.05,-1.17 3.21,-1.17 0.21,0 0.42,0.02 0.63,0.04 l 2077.82,260.8 c 4.57,-38.62 8.84,-77.31 12.73,-116.02 l 3.33,-34.01 -2089.91,-236.85 c -2.58,-0.29 -4.5,-2.51 -4.43,-5.09 0.97,-37.12 1.54,-73.39 1.71,-107.8 0,-1.41 0.61,-2.77 1.68,-3.71 0.92,-0.82 2.1,-1.26 3.31,-1.26 0.19,0 0.39,0.01 0.57,0.03 l 2105.99,244.02 c 3.79,-2.62 8.38,-4.15 13.34,-4 12.4,0.38 22.14,10.74 21.76,23.15 -2.65,86.05 -7.59,171.44 -13.8,257.01 -6.87,85.45 -15.52,170.77 -25.94,255.93 -21.26,170.19 -48.48,340.18 -93.99,506.9 -11.75,41.57 -25.08,82.79 -40.31,123.47 -15.26,40.87 -33.19,80.28 -51.55,119.19 -37.17,77.81 -79.1,153.95 -130.84,224.01 -51.58,69.65 -114.49,134 -192.42,176.17 -38.9,20.8 -80.86,35.52 -123.6,44.45 -42.79,9.01 -86.15,12.52 -129.12,13.8 -4.63,0.13 -8.71,-3.3 -9.27,-7.98 -0.6,-4.98 2.95,-9.48 7.92,-10.08" /><path
         id="path16"
         style="fill:#231f20;fill-opacity:1;fill-rule:nonzero;stroke:none"
         d="m 4571.85,2182 c -25.88,45.45 -55.64,88.25 -87.42,128.98 -49.95,63.81 -105.16,122.72 -163.14,178.33 -58.04,55.59 -118.94,107.84 -181.78,157.46 -62.98,49.52 -127.46,96.72 -194.83,140.37 -4.09,2.65 -9.58,1.6 -12.39,-2.42 -2.88,-4.11 -1.86,-9.77 2.25,-12.64 l 0.15,-0.1 c 64.89,-45.31 127.53,-94.55 188.1,-145.67 60.52,-51.28 118.9,-105 174.07,-161.63 55.11,-56.64 107.12,-116.2 153.3,-179.58 46.01,-63.33 86.48,-130.73 114.15,-202.25 3.08,-7.79 10,-14.07 18.82,-15.81 13.81,-2.73 27.23,6.25 29.96,20.06 l 0.13,0.72 0.01,0.06 c 4.74,25.79 7.25,50.18 9.62,74.96 2.27,24.65 4,49.25 5.24,73.85 2.52,49.18 3.67,98.31 3.79,147.41 0.25,98.23 -3.61,196.37 -11.71,294.19 -7.97,97.83 -19.7,195.36 -35.46,292.29 -7.89,48.46 -16.79,96.77 -26.78,144.87 -10.08,47.88 -21.49,96.49 -36.11,143.97 -14.55,47.57 -31.95,94.53 -53.58,139.92 -21.67,45.33 -47.64,89.21 -80.03,128.91 -32.29,39.6 -71.43,75.01 -117.29,100.31 -45.64,25.5 -97.68,39.85 -149.49,42.2 -12.95,0.65 -25.89,0.61 -38.63,0.05 l -9.5,-0.49 -3.22,-0.27 -1.32,-0.15 -2.52,-0.41 c -3.42,-0.63 -5.45,-1.27 -8,-2.15 -9.56,-3.47 -16.52,-8.51 -22.5,-13.54 -11.74,-10.22 -19.91,-21.1 -27.48,-32.03 -7.47,-10.95 -13.93,-22.07 -19.97,-33.27 -23.74,-44.86 -41.19,-91.06 -57.57,-137.49 -32.08,-93.05 -56.93,-187.69 -77.2,-283.5 -0.79,-3.78 1.37,-7.67 5.13,-8.91 4.04,-1.34 8.4,0.86 9.74,4.9 l 0.05,0.15 c 15.21,46.14 30.32,92.42 46.7,138.13 16.06,45.8 32.64,91.38 50.59,136.18 17.91,44.7 37.04,89.15 59.96,129.91 5.75,10.12 11.8,19.95 18.27,28.98 6.43,8.96 13.47,17.39 20.33,22.97 3.36,2.76 6.67,4.63 8.63,5.2 0.33,0.13 1.24,0.32 0.83,0.21 l -0.27,0 0.94,0.09 1.33,0.08 8.75,0.36 c 11.61,0.37 23.06,0.28 34.44,-0.41 45.48,-2.62 89.7,-15.43 128.96,-37.88 39.38,-22.29 73.61,-53.7 102.42,-89.84 57.71,-72.77 94.78,-162 121.76,-253.12 13.56,-45.84 23.93,-92.31 33.43,-139.88 9.71,-47.33 18.38,-94.9 26.03,-142.64 15.3,-95.47 26.63,-191.63 34.27,-288.06 7.46,-96.45 11.84,-193.16 12.26,-289.85 0.16,-48.33 -0.67,-96.66 -2.87,-144.81 -0.9,-19.14 -2.03,-38.23 -3.35,-57.27" /><path
         id="path18"
         style="fill:#231f20;fill-opacity:1;fill-rule:nonzero;stroke:none"
         d="m 7199.65,1146.02 c -5.23,32.89 -7.34,68.82 -9.17,104.1 -1.73,35.47 -2.73,71.16 -3.39,106.9 -1.17,71.44 -1.52,143.22 -0.85,214.67 l 0.01,0.41 c 0.02,3.02 -0.53,6.09 -1.68,9.07 -11.56,29.68 -22.36,60.32 -31.76,91.08 0.77,54.6 0.99,109.16 0.97,163.77 0.15,92.03 -2.01,184.05 -4.85,276.06 -2.94,92.01 -6.89,184.01 -12.45,275.97 -5.95,91.93 -13.35,183.81 -22.78,275.58 -9.79,91.72 -21.63,183.32 -36.97,274.55 -7.56,45.64 -16.51,91.04 -26.35,136.23 -9.91,45.18 -20.45,90.26 -32.89,134.86 -24.49,89.27 -53.97,177.44 -91.81,262.19 -19,42.3 -39.99,83.8 -64.31,123.36 -12.06,19.82 -25.11,39.07 -39.18,57.53 -14.15,18.42 -29.14,36.17 -47.02,51.39 -0.75,0.64 -1.86,0.62 -2.58,-0.06 -0.78,-0.73 -0.82,-1.96 -0.1,-2.73 l 0.14,-0.15 c 15.44,-16.43 27.99,-35.8 40.07,-54.97 11.94,-19.38 22.73,-39.44 32.95,-59.74 20.24,-40.75 37.8,-82.77 53.5,-125.45 31.35,-85.42 55.79,-173.28 76.41,-261.97 41.23,-177.56 66.68,-358.37 82.8,-540.48 8.51,-91.01 15.01,-182.27 20.11,-273.65 5.5,-91.34 9.75,-182.81 12.83,-274.35 1.38,-44.76 2.63,-89.56 3.75,-134.37 -5,16.01 -10.45,31.89 -16.96,47.42 -8.77,20.63 -18.93,40.99 -32.57,59.18 -1.54,2.05 -4.3,2.91 -6.79,1.91 -2.06,-0.82 -3.32,-2.72 -3.55,-4.79 -0.09,-0.9 -0.05,-1.84 0.32,-2.75 l 0.05,-0.13 c 15.87,-39.71 24.18,-82.05 31.37,-124.3 3.56,-21.16 6.3,-42.48 8.95,-63.75 2.38,-21.31 4.35,-42.66 5.87,-63.87 0.68,-10.58 1.16,-21.27 1.32,-31.6 0,-5.07 0.19,-11.7 0.64,-17.51 0.43,-5.95 1.06,-11.79 1.79,-17.56 3,-23.07 7.78,-45.17 13.2,-66.96 10.62,-41.92 23.45,-82.25 38.19,-122.8 -1.96,-70.71 -3.08,-141.17 -2.61,-211.94 0.22,-36.11 0.78,-72.24 2.09,-108.55 1.35,-32.72 2.84,-65.14 7.09,-99.03 -4.49,-7.09 -7.83,-13.91 -10.83,-20.65 -4.34,-9.95 -7.81,-19.7 -10.89,-29.39 -6.16,-19.36 -10.84,-38.52 -14.98,-57.65 -4.1,-19.14 -7.6,-38.25 -10.69,-57.37 -1.91,-11.941 -3.62,-23.82 -5.23,-35.781 -1.66,-0.129 -3.25,-0.328 -4.94,-0.437 -8.75,-0.563 -17.74,-0.832 -26.8,-0.883 -12.45,-0.059 -25.08,0.359 -37.73,0.93 -5.28,14.082 -9.3,29.839 -12.54,45.8 -4.38,21.941 -7.43,44.661 -9.8,67.621 -4.66,45.96 -7.29,92.8 -9,139.8 -1.72,47.04 -2.67,94.3 -3.64,141.67 -0.83,45.68 -2.23,91.47 -3.93,137.35 10.02,25.2 15.69,49.61 20.96,74.21 5.52,26.29 9.29,52.62 12.44,78.95 6.1,52.67 8.69,105.36 9.1,157.98 0.14,26.31 -0.41,52.6 -1.34,78.84 -0.79,26.05 -2.72,52.87 -6.24,79.4 -3.69,26.59 -8.83,53.27 -18.41,79.65 -4.94,13.13 -10.78,26.31 -19.98,38.65 -3.15,4.22 -6.8,8.34 -11.14,12.08 -1.97,1.7 -4.04,3.35 -6.35,4.86 -3.69,2.38 -7.86,4.44 -12.57,5.61 -2.36,0.59 -4.81,0.98 -7.39,1.05 -2.8,0 -4.72,0.04 -8.86,-1.1 -0.04,-0.02 -0.08,-0.05 -0.12,-0.06 -0.1,0 -0.21,0.03 -0.31,0.03 -9.89,0 -18.89,-3.34 -26.76,-9.9 -1.45,-1.21 -2.09,-3.11 -1.66,-4.95 0.15,-0.69 5.41,-24.09 11.7,-60.35 L 6726.71,1968 c -5.12,-1.26 -8.72,-6.08 -8.28,-11.5 0.49,-6.02 5.76,-10.51 11.78,-10.02 l 193.55,15.74 c 10.24,-72.67 18.68,-167.78 8.75,-245.98 -18.89,-148.58 -35.9,-225.48 -36.06,-226.25 -0.07,-0.34 -0.11,-0.69 -0.12,-1.03 -0.03,-3.07 -2.51,-238.84 -2.92,-373.39 -19.14,-2.45 -38.13,-5.92 -56.8,-10.39 -14.55,-3.47 -28.87,-7.68 -43.05,-12.19 -1.27,14.92 -2.28,30.01 -3.16,45 -1.91,35.39 -2.94,71.07 -3.56,106.77 -1.17,71.39 -0.82,143.19 0.67,214.57 l 0.01,0.33 c 0.07,3.63 -0.68,7.34 -2.34,10.84 -18.2,38.76 -34.98,79.59 -48.29,120.28 -6.58,20.39 -12.35,40.98 -15.87,61.15 -0.88,5.03 -1.61,10.02 -2.12,14.92 -0.57,5.09 -0.69,9.14 -0.98,15.14 -0.63,11.82 -1.68,23.14 -2.99,34.56 -2.5,22.76 -6.44,45.15 -11.42,67.3 -4.77,22.2 -10.93,44.06 -18.05,65.63 -7.15,21.56 -15.61,42.76 -25.76,63.23 -10.24,20.38 -22.13,40.29 -37.59,57.43 -1.72,1.9 -4.56,2.5 -6.95,1.28 -1.83,-0.94 -2.85,-2.72 -3.03,-4.63 -0.11,-1.06 -0.01,-2.16 0.52,-3.18 l 0.05,-0.12 c 19.73,-38.52 30.78,-80.71 39.99,-122.97 4.57,-21.18 8.15,-42.58 11.48,-63.95 3.05,-21.43 5.55,-42.91 7.37,-64.26 0.83,-10.64 1.42,-21.42 1.58,-31.74 0,-5.07 0.26,-12.11 0.82,-18.04 0.54,-6.12 1.32,-12.11 2.26,-18.01 3.77,-23.56 9.72,-45.82 16.39,-67.71 12.98,-41.76 28.51,-81.52 46.24,-121.34 -2.51,-70.48 -3.93,-140.65 -3.88,-211.2 0.07,-36.16 0.55,-72.37 1.95,-108.77 1.45,-32.21 3.05,-64.09 7.9,-97.57 -4.76,-6.23 -8.66,-12.46 -12.14,-18.6 -5.46,-9.86 -9.79,-19.639 -13.74,-29.381 -7.79,-19.508 -13.77,-38.91 -19.08,-58.34 -5.26,-19.418 -9.73,-38.828 -13.72,-58.308 -2.53,-12.512 -4.78,-24.942 -6.9,-37.492 -3.98,-0.34 -7.96,-0.68 -12.02,-0.911 -11.06,-0.628 -22.29,-0.949 -33.6,-1.046 -17.33,-0.153 -34.82,0.277 -52.35,0.937 -6.38,13.633 -11.32,29.289 -15.25,45.332 -5.25,21.508 -8.91,44.039 -11.7,66.867 -5.63,45.723 -8.46,92.602 -10.29,139.662 -1.8,47.1 -2.66,94.49 -3.54,142.01 -0.71,45.39 -2.02,90.91 -3.72,136.54 12.07,24.87 19.06,49.34 25.6,74 6.96,26.59 11.65,53.38 15.62,80.14 3.91,26.78 6.88,53.57 9.04,80.39 1.92,26.84 3.04,53.67 3.54,80.49 0.32,26.81 -0.08,53.6 -1.05,80.35 -0.82,26.56 -3.01,54.06 -7.24,81.14 -4.44,27.15 -10.74,54.5 -22.88,80.99 -6.22,13.13 -13.83,26.29 -25.44,37.43 -2.33,2.16 -4.87,4.27 -7.53,6.29 -10.56,7.99 -23.78,13.92 -40.39,10.36 -0.2,-0.05 -0.37,-0.17 -0.56,-0.21 -0.25,0 -0.5,0.03 -0.74,0.03 -11.82,0 -22.61,-3.27 -32.08,-9.73 -1.76,-1.2 -2.57,-3.4 -2.01,-5.45 0.13,-0.44 2.81,-10.34 6.7,-26.98 l -282.12,-61.91 c -5.36,-1.19 -9.12,-6.26 -8.51,-11.83 0.64,-6 6.03,-10.34 12.02,-9.68 l 289.69,31.37 c 14.41,-74.64 30.12,-188.37 15.43,-279.34 -24.02,-148.65 -45.33,-225.63 -45.55,-226.4 -0.12,-0.41 -0.18,-0.83 -0.19,-1.25 -0.05,-3.38 -5.36,-289.63 -5.95,-411.271 -0.06,-11.578 -0.08,-21.68 -0.04,-29.891 -23.66,4.903 -47.81,7.453 -71.89,7.453 -9.05,0.028 -18.06,-0.382 -27.05,-0.992 -13.46,-0.929 -26.83,-2.488 -40.07,-4.719 -2.8,23.571 -4.49,48.11 -5.89,72.36 -1.97,36.24 -3.01,72.76 -3.65,109.32 -1.17,73.1 -0.8,146.61 0.74,219.7 l 0.01,0.31 c 0.06,3.64 -0.69,7.34 -2.33,10.86 -18.65,39.72 -35.83,81.52 -49.45,123.21 -6.73,20.88 -12.65,41.99 -16.26,62.67 -0.9,5.16 -1.64,10.29 -2.17,15.31 -0.58,5.23 -0.71,9.41 -1,15.54 -0.64,12.09 -1.7,23.67 -3.03,35.35 -2.56,23.28 -6.57,46.2 -11.66,68.87 -4.87,22.7 -11.14,45.08 -18.39,67.16 -7.3,22.06 -15.91,43.77 -26.27,64.72 -10.43,20.87 -22.56,41.26 -38.32,58.84 -1.72,1.91 -4.57,2.52 -6.97,1.28 -1.82,-0.94 -2.84,-2.73 -3.01,-4.63 -0.1,-1.07 -0.01,-2.16 0.52,-3.18 l 0.05,-0.12 c 20.34,-39.39 31.72,-82.6 41.23,-125.87 4.7,-21.68 8.39,-43.59 11.82,-65.49 3.14,-21.94 5.72,-43.94 7.6,-65.82 0.86,-10.9 1.45,-21.93 1.64,-32.52 0,-5.21 0.25,-12.37 0.84,-18.43 0.55,-6.26 1.35,-12.38 2.29,-18.41 3.87,-24.08 9.96,-46.86 16.78,-69.23 13.3,-42.77 29.23,-83.51 47.39,-124.3 -2.55,-72.17 -3.99,-144.06 -3.93,-216.3 0.08,-37.02 0.58,-74.09 2.01,-111.34 1.49,-33.039 3.16,-65.781 8.16,-100.102 -4.94,-6.418 -8.95,-12.828 -12.55,-19.168 -5.56,-10.058 -9.99,-20.05 -14.03,-30.011 -7.96,-19.93 -14.08,-39.778 -19.5,-59.637 -5.38,-19.871 -9.96,-39.742 -14.03,-59.66 -2.63,-12.973 -4.95,-25.852 -7.15,-38.871 -4.25,-0.371 -8.51,-0.731 -12.85,-0.973 -11.32,-0.656 -22.84,-0.977 -34.42,-1.078 -17.89,-0.16 -35.93,0.289 -54.02,0.969 -6.64,14.113 -11.78,30.293 -15.87,46.902 -5.37,22.051 -9.12,45.148 -11.98,68.539 -5.76,46.84 -8.65,94.852 -10.52,143.031 -1.84,48.229 -2.72,96.739 -3.61,145.389 -0.73,46.53 -2.06,93.18 -3.79,139.94 12.34,25.45 19.51,50.5 26.2,75.77 7.11,27.21 11.9,54.61 15.97,81.99 4,27.38 7.05,54.8 9.25,82.26 1.97,27.45 3.13,54.92 3.65,82.36 0.33,27.44 -0.06,54.85 -1.04,82.23 -0.84,27.19 -3.04,55.31 -7.35,83.01 -4.51,27.78 -10.92,55.75 -23.28,82.83 -6.34,13.41 -14.09,26.86 -25.92,38.23 -2.46,2.29 -5.16,4.54 -7.99,6.67 -10.69,8.03 -24.05,13.92 -40.75,10.36 -0.09,-0.02 -0.17,-0.09 -0.26,-0.12 -0.38,0.01 -0.76,0.07 -1.13,0.07 -12.06,0 -23.08,-3.34 -32.76,-9.94 -0.6,-0.41 -0.91,-1.04 -1.27,-1.62 l -305.74,-67.09 c -5.35,-1.19 -9.12,-6.26 -8.52,-11.84 0.65,-5.99 6.04,-10.33 12.03,-9.68 l 313.55,33.96 c 15.67,-72.78 39.13,-209.66 21.93,-316.11 -24.58,-152.19 -46.41,-231.01 -46.62,-231.79 -0.12,-0.41 -0.18,-0.82 -0.19,-1.24 -0.05,-3.34 -5.14,-277.611 -6.03,-408.272 -0.09,-12.886 -0.14,-24.386 -0.13,-34.07 -44.72,4.813 -89.88,5.481 -134.7,2.133 -23.85,-1.781 -47.57,-4.75 -71.1,-8.801 -3.91,29.602 -5.4,61.379 -6.45,92.711 -1.07,36.277 -1.2,72.809 -0.93,109.379 0.62,73.1 2.81,146.58 6.15,219.6 l 0.02,0.33 c 0.16,3.63 -0.5,7.35 -2.06,10.91 -17.67,40.16 -33.8,82.37 -46.39,124.39 -6.23,21.04 -11.61,42.29 -14.72,63.06 -0.77,5.17 -1.38,10.32 -1.78,15.36 -0.45,5.24 -0.48,9.42 -0.63,15.55 -0.33,12.1 -1.1,23.72 -2.15,35.41 -1.99,23.34 -5.42,46.35 -9.96,69.14 -4.29,22.82 -10.01,45.36 -16.71,67.6 -6.75,22.24 -14.83,44.14 -24.67,65.35 -9.91,21.12 -21.53,41.8 -36.85,59.76 -1.68,1.95 -4.52,2.63 -6.94,1.46 -1.85,-0.9 -2.9,-2.66 -3.13,-4.56 -0.12,-1.06 -0.06,-2.15 0.44,-3.2 l 0.05,-0.12 c 19.36,-39.87 29.68,-83.34 38.11,-126.84 4.17,-21.79 7.32,-43.79 10.2,-65.76 2.6,-22.02 4.63,-44.08 5.97,-65.99 0.59,-10.92 0.92,-21.96 0.83,-32.56 -0.13,-5.19 -0.04,-12.37 0.39,-18.44 0.4,-6.28 1.05,-12.41 1.85,-18.45 3.27,-24.17 8.79,-47.1 15.05,-69.64 12.26,-43.09 27.17,-84.21 44.32,-125.43 -4.34,-72.09 -7.56,-143.91 -9.28,-216.13 -0.84,-37.019 -1.26,-74.081 -0.74,-111.351 0.69,-33.078 1.53,-65.84 5.68,-100.277 -5.08,-6.293 -9.26,-12.613 -13.01,-18.852 -5.81,-9.929 -10.48,-19.808 -14.77,-29.66 -8.45,-19.73 -15.07,-39.41 -20.96,-59.14 -5.87,-19.719 -10.94,-39.469 -15.5,-59.29 -2.95,-12.898 -5.6,-25.718 -8.12,-38.691 -4.25,-0.258 -8.51,-0.519 -12.86,-0.66 -11.34,-0.359 -22.86,-0.399 -34.44,-0.219 -17.89,0.281 -35.92,1.18 -53.98,2.309 -6.3,14.261 -11.03,30.57 -14.7,47.269 -4.83,22.192 -8.01,45.371 -10.29,68.821 -4.61,46.961 -6.31,95.031 -6.98,143.25 -0.65,48.25 -0.33,96.781 -0.03,145.429 0.41,46.532 0.25,93.212 -0.32,139.992 12.97,25.13 20.75,50.02 28.06,75.11 7.77,27.01 13.25,54.29 17.98,81.56 4.68,27.28 8.4,54.62 11.28,82 2.65,27.42 4.49,54.83 5.69,82.25 1.01,27.43 1.3,54.84 1,82.24 -0.17,27.2 -1.69,55.37 -5.31,83.18 -3.82,27.86 -9.54,55.99 -21.23,83.36 -6.01,13.57 -13.43,27.21 -24.96,38.86 -2.41,2.36 -5.04,4.67 -7.83,6.87 -10.49,8.28 -23.7,14.51 -40.48,11.36 -0.13,-0.03 -0.25,-0.12 -0.37,-0.15 -0.87,0.03 -1.76,0.16 -2.63,0.16 -11.43,0 -21.99,-3.08 -31.4,-9.15 -1.77,-1.15 -2.62,-3.3 -2.14,-5.36 l -270.8,-53.1 c -5.34,-1.04 -9.19,-5.93 -8.79,-11.49 0.42,-6.02 5.65,-10.55 11.66,-10.12 l 279.44,19.85 c 13.83,-74.02 32.9,-208.66 13.42,-312.84 -28.33,-151.54 -52.09,-229.79 -52.33,-230.56 -0.12,-0.42 -0.19,-0.83 -0.21,-1.25 -0.16,-3.49 -13.11,-302.791 -16.62,-424.819 -27.04,4.868 -54.61,7.457 -82.55,6.778 -32.13,-0.77 -64.49,-5.789 -95.56,-15.84 -3.54,-1.141 -6.99,-2.59 -10.5,-3.867 -0.28,21.617 0.16,43.668 0.8,65.539 1.29,38.179 3.51,76.539 6.14,114.898 5.34,76.699 12.26,153.651 20.32,230.131 l 0.04,0.3 c 0.35,3.45 -0.03,7.04 -1.25,10.54 -15.13,43.51 -28.53,88.92 -38.4,133.91 -4.85,22.53 -8.86,45.2 -10.62,67.28 -0.43,5.5 -0.71,10.97 -0.78,16.33 -0.11,5.53 0.14,10.06 0.38,16.44 0.44,12.59 0.42,24.75 0.14,37.01 -0.47,24.45 -2.41,48.69 -5.44,72.77 -2.79,24.11 -7.03,48.02 -12.26,71.74 -5.27,23.7 -11.9,47.17 -20.33,70.09 -8.52,22.84 -18.77,45.37 -33.02,65.5 -1.51,2.12 -4.32,3.04 -6.84,2.04 -1.95,-0.76 -3.15,-2.48 -3.5,-4.39 -0.18,-1.03 -0.19,-2.07 0.21,-3.11 l 0.05,-0.12 c 16.93,-43.28 24.33,-89.58 29.94,-135.73 2.74,-23.11 4.46,-46.36 5.91,-69.58 1.16,-23.23 1.76,-46.48 1.68,-69.54 -0.12,-11.48 -0.51,-23.08 -1.28,-34.23 -0.46,-5.47 -0.83,-12.81 -0.8,-19.15 0,-6.52 0.23,-12.94 0.63,-19.26 1.67,-25.34 5.67,-49.61 10.45,-73.59 9.43,-46.02 21.73,-90.31 36.3,-134.85 -9.01,-75.5 -16.9,-150.789 -23.3,-226.57 -3.22,-38.762 -6.05,-77.59 -7.92,-116.68 -1.49,-35.039 -2.76,-69.769 -0.77,-106.378 -5.81,-6.571 -10.55,-13.204 -14.84,-19.801 -6.38,-10.039 -11.66,-20.063 -16.52,-30.11 -9.64,-20.089 -17.46,-40.242 -24.58,-60.472 -7.09,-20.239 -13.38,-40.528 -19.17,-60.93 -3.83,-13.527 -7.34,-27.019 -10.73,-40.668 -4.2,-0.012 -8.42,-0.012 -12.71,0.09 -11.31,0.32 -22.79,0.98 -34.31,1.879 -17.72,1.39 -35.53,3.422 -53.35,5.68 -5.58,15.82 -9.33,33.64 -11.98,51.75 -3.38,23.75 -5.05,48.371 -5.81,73.171 -1.52,49.688 -0.12,100.25 2.33,150.879 2.46,50.668 5.92,101.532 9.35,152.52 3.44,48.93 6.29,98.058 8.73,147.32 14.68,25.66 24.07,51.35 33,77.28 9.45,27.75 16.65,55.88 23.11,84.06 6.4,28.18 11.84,56.48 16.48,84.86 4.39,28.44 7.98,56.92 10.94,85.45 2.79,28.54 4.83,57.13 6.32,85.71 1.64,28.38 1.9,57.79 0.2,86.96 -1.97,29.26 -5.7,58.85 -15.33,88.17 -4.95,14.56 -11.31,29.27 -21.83,42.51 -2.74,3.43 -5.81,6.76 -9.22,9.85 -3.13,2.81 -6.53,5.43 -10.32,7.68 -3.94,2.35 -8.32,4.27 -13.02,5.4 -1.86,0.44 -3.78,0.68 -5.73,0.89 -2.15,39.92 -4.64,79.84 -8.7,119.76 -0.37,3.5 -3.32,6.26 -6.92,6.29 -0.56,0.01 -1.06,-0.19 -1.58,-0.3 -3.09,-0.72 -5.44,-3.34 -5.47,-6.64 l 0,-0.06 c -0.35,-47.11 -2.86,-94.37 -5.6,-141.56 -2.41,-40.34 -5.25,-80.71 -8.36,-120.95 l -89.73,-6.04 c 0.41,207.15 -0.75,414.17 -4.46,621.34 -0.98,47.32 -2.13,94.63 -3.44,141.95 -1.68,60.46 -3.7,120.94 -6.32,181.47 -2.42,53.96 -5.21,107.92 -9.6,162.19 -4.41,54.75 -11.97,108.27 -19.57,161.95 -15.75,107.28 -36.15,214.11 -64.15,319.29 -27.95,105.13 -62.74,208.96 -109,308.36 -23.12,49.69 -49.22,98.08 -79.13,144.56 -9.04,14.09 -18.69,27.83 -28.64,41.39 -22.87,31.18 -47.94,60.9 -75.22,88.32 -39.15,39.42 -82.54,74.6 -129.29,104.62 -23.39,14.99 -47.61,28.73 -72.64,40.97 -6.81,3.32 -13.68,6.51 -20.61,9.61 16.74,1.76 34.22,2.1 51.81,1.68 17.42,-2.55 34.68,-6.17 51.72,-10.71 17.55,-4.43 34.6,-10.62 51.62,-17.15 16.87,-6.85 33.58,-14.48 49.77,-23.34 16.26,-8.59 32.31,-18.61 47.25,-29.19 l 0.43,-0.3 c 1.71,-1.21 3.91,-1.56 5.93,-0.94 0.65,0.21 1.29,0.51 1.88,0.92 3.07,2.14 3.83,6.38 1.69,9.46 -0.45,0.64 -0.96,1.21 -1.41,1.84 l 841.41,7.58 452.84,4.54 226.41,2.27 c 75.48,0.81 150.96,1.06 226.42,5.21 4.1,0.24 7.48,3.54 7.68,7.74 0.23,4.5 -3.24,8.31 -7.73,8.53 -75.49,3.66 -150.97,3.43 -226.45,3.76 l -43.37,0.15 0,0.01 c 1.8,91.98 2.45,125.15 -2.05,138.73 l 16.17,8.42 74.98,-115.29 c 0.94,-1.46 2.54,-2.27 4.19,-2.27 0.67,0 1.36,0.14 2.02,0.43 2.24,0.99 3.43,3.47 2.81,5.84 l -49.14,187.39 c -0.57,2.15 -2.5,3.68 -4.74,3.72 l -82.72,1.64 c -6.79,4.21 -39.4,23.72 -62.32,23.72 -3.65,0 -6.97,-0.49 -9.88,-1.47 -19.64,-6.54 -58.47,-71.61 -74.44,-99.61 -2.18,-0.01 -4.26,-0.01 -6.49,-0.02 l -120.02,102.75 -6.88,7.92 c -0.96,1.11 -1.97,1.88 -3.81,1.72 l -158.96,12.83 1.24,0.11 c 6.99,0.64 13.64,4.32 17.85,10.62 3,4.49 7.87,10.53 12.31,15.33 4.59,5 9.49,9.58 14.49,13.51 10,7.93 20.5,12.62 28.69,12.52 9.3,-0.2 20.26,-3.58 32.37,-9.88 12.02,-6.34 34.85,11.88 23.05,26.53 -11.66,14.5 -30.39,26.62 -52.98,28.55 -11.74,0.88 -23.07,-1.28 -32.93,-4.85 -9.9,-3.59 -18.58,-8.47 -26.45,-13.85 -7.85,-5.4 -14.94,-11.33 -21.5,-17.62 -3.62,-3.53 -6.94,-6.92 -10.24,-10.56 l -56.09,-2.9 -143.91,360.63 63.82,0 c 7.29,0.02 14.34,3.7 18.61,10.11 19.57,-1.29 28.83,-4.01 28.83,-4.01 19.04,0 34.47,43.3 34.47,96.71 0,53.42 -15.43,96.72 -34.47,96.72 l -20.55,3.52 c -2.78,3 -5.75,5.77 -8.9,8.32 -1.86,6.22 -4.01,12.43 -6.77,18.61 -3.22,7.14 -7.08,14.27 -12.33,21.2 -2.67,3.45 -5.67,6.87 -9.39,10.1 -3.4,3.13 -9.31,6.68 -12.68,7.98 -7.86,3.53 -17.03,5.97 -26.55,5.58 -9.51,-0.38 -18.75,-3.69 -25.84,-8.68 -14.13,-10.34 -21.7,-24.33 -24.06,-39.25 -0.12,-0.84 0.09,-1.73 0.67,-2.44 1.08,-1.31 3.02,-1.49 4.32,-0.41 l 0.28,0.23 c 10.5,8.68 21.08,16.33 30.88,18.91 9.69,2.61 16.85,1.06 25.49,-3.76 5.49,-2.83 10.69,-12.42 14.19,-23.3 3.53,-10.88 5.82,-22.97 7.05,-35.31 2.48,-24.78 1.65,-50.58 -0.47,-76.38 -1.74,-19.76 -4.48,-39.6 -7.47,-59.48 l -99.82,0 c 3.09,18.54 5.29,37.3 6.36,56.27 1.6,28.12 0.95,56.73 -4.26,85.54 -2.73,14.38 -6.33,28.88 -12.7,43.2 -3.23,7.14 -7.08,14.27 -12.33,21.2 -2.66,3.45 -5.68,6.87 -9.39,10.1 -3.41,3.13 -9.31,6.68 -12.69,7.98 -7.85,3.53 -17.02,5.97 -26.55,5.58 -9.49,-0.38 -18.74,-3.69 -25.83,-8.68 -14.13,-10.34 -21.71,-24.33 -24.05,-39.25 -0.14,-0.84 0.07,-1.73 0.66,-2.44 1.07,-1.31 3.02,-1.49 4.32,-0.41 l 0.27,0.23 c 10.5,8.68 21.09,16.33 30.88,18.91 9.7,2.61 16.86,1.06 25.5,-3.76 5.49,-2.83 10.68,-12.42 14.2,-23.3 3.51,-10.88 5.81,-22.97 7.04,-35.31 2.48,-24.78 1.65,-50.58 -0.47,-76.38 -1.75,-19.76 -4.47,-39.6 -7.46,-59.48 l -570.06,0 c 5.16,15.18 8.27,32.65 8.68,51.28 0.75,33.99 -7.7,64.45 -21.49,84.51 1.19,1.96 2.32,4.01 3.54,5.94 4.1,6.24 8.62,12.05 13.15,16.76 1.37,-2.73 3.29,-5.23 5.79,-7.29 -0.59,0.75 0.49,0.04 1,-0.28 0.65,-0.43 1.36,-0.98 2.08,-1.57 1.46,-1.21 2.96,-2.65 4.43,-4.22 2.95,-3.11 5.78,-6.76 8.45,-10.63 5.37,-7.77 10.02,-16.61 14.1,-25.9 8.07,-18.65 13.77,-39.1 17.82,-60.04 0.38,-1.96 2.02,-3.54 4.11,-3.72 2.53,-0.22 4.75,1.66 4.96,4.18 1.88,21.74 2.15,43.93 -0.8,66.62 -1.53,11.33 -3.85,22.79 -7.68,34.33 -1.92,5.77 -4.19,11.55 -7.12,17.37 -0.72,1.44 -1.65,2.91 -2.47,4.37 19.98,1.49 40.39,2.48 60.78,3.28 49.99,1.69 100.22,2.76 150.44,3.96 l 150.78,3.12 c 3.71,0.08 6.88,2.98 7.14,6.76 0.29,4.02 -2.74,7.49 -6.74,7.77 -29.5,2.05 -58.99,4.02 -88.48,5.86 -14.38,16.09 -190.17,212.56 -263,280.28 l -1.29,1.21 -1.77,0.12 c -38.83,2.64 -64.92,-5.3 -77.47,-23.75 -18.21,-26.8 -0.42,-64.77 0.35,-66.37 l 12.83,-12.86 c -10.82,-0.07 -21.63,1.32 -31.91,4.17 -20.82,5.85 -39.84,17.75 -53.15,34.07 -13.15,16.33 -20.93,36.45 -20.56,57.19 0.18,20.76 7.97,41.15 21.86,57.72 13.92,16.61 33.77,28.4 55.44,34.48 43.72,12.15 95.18,0.9 131.69,-36.52 l 0.1,-0.11 c 2.09,-2.13 5.34,-2.91 8.29,-1.72 3.86,1.58 5.74,6 4.16,9.87 -11.16,27.44 -34.42,50.3 -62.44,63.66 -14.03,6.74 -29.29,11.23 -44.96,13.05 -15.62,2.06 -31.67,1.48 -47.39,-1.59 -31.56,-5.71 -61.24,-22.41 -83.74,-46.44 -11.14,-12.14 -20.54,-26.2 -27.12,-41.7 -2.71,-6.44 -4.82,-13.16 -6.55,-19.98 -20.69,26.85 -41.43,53.67 -62.13,80.52 -44.12,57.51 -88.95,114.47 -133.67,171.52 l -134.25,171.1 -67.92,85.05 c -5.21,6.55 -13.71,16.65 -12.38,16.03 -1.67,3.63 -2.96,9.4 -3.05,15.71 -0.35,12.75 3.19,27.22 9.39,40.37 6.19,13.24 15.14,25.43 25.98,35.82 5.45,5.22 11.34,9.92 17.69,14.28 6.94,4.73 13.74,8.93 20.45,12.36 13.63,6.98 25.3,9.83 36.27,7.93 11.18,-1.72 24.14,-8.94 36.81,-18.77 25.69,-19.96 49.01,-46.98 73.77,-73.53 l 73.52,-80.01 c 98.28,-106.55 197.97,-211.9 300.42,-314.81 2.47,-2.5 6.48,-2.8 9.31,-0.57 3.06,2.39 3.6,6.81 1.2,9.86 -84.55,107.64 -171.67,212.98 -260.43,316.93 12.47,7.6 20.93,21.51 20.93,37.58 0,24.15 -18.87,43.73 -42.16,43.73 -13.79,0 -25.92,-6.97 -33.62,-17.59 l -25.93,29.95 c 18.55,4.59 32.38,21.78 32.38,42.42 0,24.15 -18.87,43.72 -42.16,43.72 -12.1,0 -22.93,-5.35 -30.63,-13.82 -10.61,25.61 -65.13,77.43 -73.59,77.61 0,0 -484.78,25.54 -517.16,8.76 l -0.27,-0.19 -156.57,-111.58 c -6.97,-4.99 -11.16,-13.51 -10.19,-22.64 l 0.02,-0.22 16.54,-156.02 -169.15,-194.89 c -6.16,3.99 -12.66,7.58 -19.58,10.59 -7.64,3.46 -15.8,6.13 -24.41,7.95 -8.58,1.95 -17.67,2.99 -27.17,2.7 -18.94,-0.69 -40.13,-6.23 -57.62,-23.32 -1.48,-1.4 -1.52,-1.57 -2.26,-2.35 l -0.89,-0.96 -0.96,-1.05 -0.33,-0.41 -0.66,-0.81 c -1.77,-2.17 -3.43,-4.4 -4.92,-6.75 -2.74,-4.16 -4.96,-8.57 -6.78,-13.05 -0.79,-0.84 -1.63,-1.62 -2.33,-2.58 l -528.31,-719.61 c -3.08,-4.2 -2.35,-10.15 1.76,-13.45 4.22,-3.39 10.4,-2.72 13.79,1.5 l 521.9,648.93 c 6.89,-14.09 15.98,-26.39 25.88,-37.4 5.34,-5.79 11.02,-11.02 16.99,-16.04 l 4.64,-3.79 4.21,-3.14 c 3.5,-2.49 6.36,-4.47 9.7,-6.53 12.65,-8.17 27.1,-14.69 41.06,-18.52 l 0.15,-0.04 c 3.81,-1.04 8.03,0.28 10.53,3.64 3.25,4.38 2.35,10.57 -2.03,13.83 -21.47,15.99 -39.09,35.27 -51.68,56.4 -12.68,20.59 -20.14,44.83 -17.53,62.29 0.55,4.25 1.74,7.86 3.31,10.61 0.75,1.41 1.61,2.6 2.58,3.64 0.45,0.54 0.95,1.02 1.47,1.48 l 0.19,0.19 0.08,0.09 0.02,0.02 c -0.26,-0.28 -0.77,-0.82 -0.66,-0.71 l 0.12,0.11 0.93,0.91 c 0.49,0.45 1.59,1.61 1.45,1.32 0.1,0 0.18,0.03 0.23,0.07 l 0.86,0.56 c 0.6,0.37 1.19,0.75 1.86,1.05 1.26,0.72 2.71,1.33 4.31,1.87 3.18,1.07 7.09,1.87 11.48,2.17 0.84,0.06 1.76,0.02 2.63,0.05 -5.83,-19.04 4.7,-46.34 27.63,-67.21 28.03,-25.5 63.92,-31.68 80.18,-13.8 6.05,6.64 8.52,15.68 7.81,25.72 l 134.9,143.65 13.02,-122.83 c -4.52,-1.26 -8.86,-3.4 -12.69,-6.61 -143.57,-120.34 -285.6,-242.44 -427.46,-364.74 -141.84,-122.31 -282.87,-245.59 -424.01,-368.6 l -52.86,-46.31 -52.77,-47.2 -103.9,-95.17 c -14.91,-13.74 -29.65,-27.62 -44.48,-41.41 -1.32,1.96 -2.6,3.95 -4.27,5.69 -18.81,19.58 -53.47,16.8 -77.41,-6.21 -23.94,-23 -28.1,-57.52 -9.29,-77.1 1.31,-1.36 2.86,-2.36 4.32,-3.51 -24.69,-23.32 -49.39,-46.62 -73.96,-70.06 -24.07,-22.96 -48.1,-45.91 -72.1,-68.91 l 17.54,44.28 c 17.05,42.1 34.74,83.89 54.3,124.27 20.03,40.2 40.38,79.63 69.62,109.29 14.63,15.26 30.41,29 48.08,39.07 8.81,5.03 18.06,9.14 27.72,11.94 4.82,1.42 9.76,2.38 14.73,3.08 4.74,0.64 10.5,0.8 14.2,0.63 l 2.15,-0.11 c 3.59,-0.16 7.09,1.83 8.67,5.29 2.09,4.56 0.09,9.95 -4.47,12.04 -7.25,3.32 -13.03,4.8 -19.73,5.9 -6.5,1.09 -13.08,1.31 -19.62,1.07 -13.08,-0.5 -25.94,-3.4 -38.07,-7.75 -24.28,-8.87 -45.67,-23.32 -63.91,-40.02 -18.62,-16.42 -34.48,-36.68 -47.53,-56.75 -13.28,-20.14 -24.94,-40.74 -35.67,-61.67 -21.56,-41.8 -40.06,-84.54 -57.04,-127.76 -8.47,-21.61 -16.52,-43.36 -23.99,-65.3 -7.55,-21.96 -14.93,-43.77 -21.46,-66.31 -0.34,-1.2 -0.53,-2.4 -0.67,-3.6 -18.53,-18 -37.03,-36.05 -55.48,-54.26 -8.44,-8.4 -16.68,-16.57 -25.45,-25.76 -9.92,-10.81 -17.71,-21.56 -24.6,-32.41 -13.7,-21.67 -24.24,-43.68 -33.67,-66 -9.22,-22.39 -17.04,-45.09 -23.52,-68.18 -6.26,-23.2 -11.9,-46.43 -14.62,-70.76 -0.24,-2.26 0.7,-4.63 2.66,-6.06 2.95,-2.14 7.06,-1.49 9.2,1.45 28.48,38.65 52.56,78.7 77.31,117.08 12.19,19.19 24.52,38.14 37.15,55.21 6.35,8.45 12.66,16.5 18.96,22.6 7.53,7.61 16.07,15.78 24.38,23.73 67.45,64 136.53,127.43 205.41,190.62 138.63,125.67 275.28,253.5 417.33,374.12 141.55,122.77 282.85,245.68 423.39,369.51 132.58,116.9 264.91,234.06 395.95,352.68 l 12.67,-119.42 2.17,-74.31 c -5.15,9.88 -11.1,19.76 -18.76,29.57 -7.33,8.97 -16.33,18.52 -31.17,24.9 -2.01,0.86 -4.17,1.57 -6.39,2.17 -5.93,6.95 -13.38,11.27 -21.6,11.27 -19.07,0 -34.52,-22.37 -34.52,-49.97 0,-14.55 4.37,-27.52 11.22,-36.65 -1.79,-24.68 -3.23,-49.3 -4.51,-73.97 -0.99,-18.43 -1.85,-36.88 -2.59,-55.33 -100.14,-100.47 -251.83,-252.78 -395.2,-397.26 l -25.49,-25.39 -107,-108.13 c -15.34,-15.55 -30.65,-31.13 -45.98,-46.69 -77.47,-78.44 -141.61,-143.76 -177.9,-181.49 -0.92,-0.95 -1.97,-2.08 -2.9,-3.06 -66.16,-68.06 -131.98,-136.45 -197.11,-205.54 -69.76,-73.75 -139.16,-147.85 -207.49,-223.28 -34.13,-37.79 -68.03,-75.78 -101.17,-115.08 -16.52,-19.73 -32.99,-39.62 -48.77,-61.21 -15.46,-21.33 -29.89,-43.19 -43.55,-65.4 -27.41,-44.35 -51.64,-90.15 -73.78,-136.73 -22.33,-46.48 -42.38,-93.83 -61.05,-141.61 -32.16,-82.92 -59.98,-166.81 -83.06,-252.68 -1.46,-0.65 -2.85,-1.4 -4.2,-2.24 -0.49,0.08 -0.94,0.29 -1.44,0.35 l -24.28,3.18 93.05,540.76 c 8.14,-2.48 16.57,-3.46 24.45,-2.81 18.46,1.33 33.9,8.9 46.81,18.15 12.96,9.58 23.01,21.14 31.25,34.9 7.55,12.65 12.87,27.92 14.49,43.08 1.6,15.26 -0.26,31.11 -6.83,45.22 -6.31,14 -18.3,26.16 -31.98,30.81 l -0.19,0.06 c -1.95,0.66 -4.18,0.19 -5.71,-1.39 -2.09,-2.17 -2.03,-5.64 0.15,-7.75 17.61,-16.97 18.74,-40.73 12.95,-61.24 -3,-10.5 -7.86,-19.75 -14.52,-28.89 -6.01,-8.04 -14.33,-15.6 -22.86,-20.75 -8.55,-5.31 -18.02,-8.21 -25.68,-8.22 -7.59,-0.09 -13.21,2.93 -16.7,7.1 -4.62,5.59 -8.24,14.33 -8.66,21.96 -0.51,7.81 1.68,15.05 6.36,22.43 l 0.83,1.27 c 1.33,2.12 2.32,4.5 2.89,7.08 2.64,12 -4.95,23.87 -16.95,26.51 -5.78,1.37 -12.2,4.01 -17.81,7.21 0.06,0.09 0.13,0.16 0.19,0.25 12.45,19.88 9.8,43.99 -5.94,53.85 -15.73,9.86 -38.6,1.75 -51.05,-18.13 -12.46,-19.88 -9.8,-43.99 5.94,-53.85 1.49,-0.93 3.1,-1.56 4.7,-2.18 5.18,-5.86 10.98,-10.63 16.71,-14.58 3.19,-2.13 6.41,-4.03 9.65,-5.79 L 1718.7,2895.1 c -14.12,-2 -26.03,-14.29 -28.17,-30.63 -1.29,-9.83 1.24,-19.16 6.29,-26.27 -16.05,-1.45 -29.54,-13.79 -31.71,-30.43 -2.53,-19.27 11.04,-36.94 30.32,-39.47 l 94.17,-12.32 c -14.32,-124.5 -28.95,-248.99 -44.27,-373.33 -9.77,-79.21 -19.79,-158.37 -30.38,-237.36 -9.79,-71.41 -19.51,-143.47 -31.82,-213.36 -4.81,-0.92 -9.59,-1.71 -14.3,-2.29 -2.07,35.03 -5.48,70.19 -11.79,105.43 -6.14,33.24 -14.42,66.87 -29.58,99.53 l 59,545.83 c 0.99,9.22 -5.45,17.71 -14.7,19.12 -9.52,1.44 -18.42,-5.09 -19.87,-14.62 l -73.57,-483.37 c -2.06,1.7 -3.94,3.51 -6.11,5.1 -14.69,10.98 -32.51,18.38 -50.55,21.89 12.19,11.23 20.03,28.45 20.03,47.74 0,33.78 -23.97,61.26 -53.41,61.26 -29.45,0 -53.41,-27.48 -53.41,-61.26 0,-20.54 8.88,-38.7 22.45,-49.82 -7.38,-1.63 -14.66,-3.51 -21.78,-5.78 -13.92,-4.56 -25.86,-12.86 -35.1,-21.99 -9.28,-9.19 -16.25,-19.21 -22.01,-29.26 -22.19,-40.45 -29.5,-81.3 -35.12,-121.56 -5.1,-40.46 -7.07,-79.96 -5.81,-120.86 0.01,-0.37 0.11,-0.7 0.14,-1.06 l -233.31,2.12 c -4.77,0.03 -8.88,-3.61 -9.31,-8.45 -0.45,-5.11 3.31,-9.6 8.42,-10.05 l 307.03,-27.16 15.93,-1.41 c 2.6,-3.16 5.3,-6.62 7.74,-9.91 4.29,-5.8 8.4,-11.82 12.32,-17.97 2.14,-3.38 4.09,-6.88 6.12,-10.33 5.39,-9.17 10.52,-18.52 15.1,-28.16 12.58,-26.55 22.02,-54.64 28.07,-83.43 10.23,-48.07 10.52,-97.99 2.72,-146.88 -64.52,-5.07 -124.56,-11.24 -177.44,-18.04 0.94,3.1 1.47,6.28 1.47,9.55 0,27.98 -36.07,50.67 -80.58,50.67 -44.49,0 -80.57,-22.69 -80.57,-50.67 0,-7.14 2.37,-13.91 6.6,-20.07 -12.03,-0.07 -24.05,-0.2 -36.09,-0.17 -36.53,0.11 -73.22,0.66 -109.58,1.69 -8.65,24.55 -16.42,50.63 -23.1,76.36 -7.477,28.92 -13.715,58.17 -18.492,87.52 -1.172,7.27 -2.254,14.56 -3.243,21.84 0.059,2.74 -0.25,5.4 -0.976,7.94 -6.168,48.93 -7.953,98.14 -2.074,145.77 l 0,0.01 0.078,0.86 c 0.004,0.05 0.023,0.08 0.027,0.12 7.316,53.29 12.824,106.33 15.973,160.54 0.722,13.56 1.519,27.3 1.406,41.67 -0.258,14.81 -0.996,29.93 -4.984,46.84 -3.844,16.45 -12.223,36.22 -28.672,50.63 -16.371,14.39 -36.137,20.23 -52.805,22.42 -8.477,1.13 -16.68,1.4 -24.457,1.33 l -20.664,-0.52 c -14.024,-0.5 -28.484,-1.53 -43.969,-4.48 -15.262,-3.06 -32.734,-7.65 -49.5,-20.76 -8.16,-6.59 -15.515,-15.46 -20.012,-25.07 -4.621,-9.57 -6.871,-19.34 -7.804,-28.31 -0.438,-4.5 -0.61,-8.86 -0.555,-13.08 l 0.398,-10.25 c 0.247,-6.67 0.676,-13.33 1.133,-20 0.907,-13.34 2.18,-26.68 3.864,-40.01 3.418,-26.68 7.984,-53.36 16.25,-80.03 0.523,-1.65 1.832,-3.06 3.613,-3.62 2.89,-0.9 5.961,0.73 6.859,3.62 8.262,26.67 12.828,53.35 16.25,80.03 1.68,13.33 2.953,26.67 3.86,40.01 0.457,6.67 0.886,13.33 1.132,20 l 0.45,9.75 c 0.117,2.45 0.359,4.74 0.699,6.88 0.703,4.24 1.926,7.55 3.308,9.91 1.36,2.41 2.993,3.84 5.254,5.51 4.594,3.21 13.645,6.13 24.524,7.47 10.844,1.4 23.094,1.78 35.719,1.95 l 19.347,-0.09 c 5.551,-0.12 10.707,-0.5 15.434,-1.28 9.554,-1.56 16.222,-4.66 19.816,-8.27 3.809,-3.32 7,-9.07 9.207,-18.4 4.321,-18.56 3.176,-44.84 2.434,-70.92 -1.828,-43.76 -4.133,-88.2 -5.945,-132.57 -60.461,3.8 -121.786,9.44 -182.711,14.91 l -210.95,20.41 c -140.621,14.11 -281.242,28.83 -421.793,43.97 -3.515,0.37 -6.7692,-2.08 -7.3277,-5.61 -0.5665,-3.64 1.9297,-7.06 5.5707,-7.64 139.726,-21.82 279.503,-43.21 419.414,-64.03 l 210.047,-30.47 c 61.253,-8.44 122.113,-17.02 184.175,-23.87 -2.383,-33.73 -1.613,-67.24 1.274,-100.39 l -799.426,130.13 c -6.254,1.01 -12.25,-3.1 -13.5,-9.35 -1.281,-6.41 2.879,-12.63 9.281,-13.91 l 810.242,-161.7 c 0.434,-2.82 0.809,-5.68 1.262,-8.5 5.074,-31.15 11.649,-61.94 19.508,-92.36 4.617,-17.72 9.574,-35.1 15.039,-52.52 l -196.426,43.33 c -81.715,17.79 -163.273,36.28 -245.117,53.49 l -245.391,52.24 -228.527,46.85 c -1.8984,97.95 -2.3437,196.21 -0.6914,294.12 0.3946,21.77 0.9844,43.5 1.6563,65.24 l 254.6411,0 c 2.765,0 5,2.24 5,5 l 0,90.88 c 0,2.61 -1.997,4.77 -4.59,4.98 l -249.1214,20.47 c 1.6953,25.12 3.5273,50.28 5.8359,75.15 l 474.9175,25.43 c 4.493,0.25 8.137,3.93 8.243,8.5 0.105,4.82 -3.707,8.8 -8.516,8.91 L 65.5313,2372.7 c 3.457,22.85 8.1054,45.31 16.7226,63.16 9.3125,19.36 23.0161,30.31 44.2691,35.97 10.45,2.81 22.071,4.32 34.071,5.04 11.773,0.63 25.488,0.84 38.199,1.13 l 77.953,1.03 c 98.07,0.72 196.324,0.48 294.496,-0.06 1.848,-9.21 3.93,-18.05 5.906,-26.93 8.399,-35.54 15.629,-72.84 22.793,-110.04 14.942,-74.43 30.036,-149.16 49.75,-223.17 1.454,-5.47 6.528,-9.47 12.426,-9.31 6.891,0.2 12.317,5.95 12.121,12.85 -2.175,76.76 -9.683,152.72 -19.375,228.67 -2.484,18.99 -5.429,37.92 -8.394,56.97 l -4.785,28.72 c -1.676,9.45 -4.121,19.96 -6.176,28.84 -4.055,17.99 -8.176,36.49 -9.016,51.14 -0.394,4.22 -0.004,7.99 0.336,10.12 0.32,0.06 0.621,0.12 1.004,0.17 1.215,0.11 2.5,0.25 4.047,0.28 l 6.734,0.09 14.282,0.12 28.566,0.46 c 19.047,0.24 38.094,0.69 57.137,1.3 l 28.574,0.81 14.281,0.4 3.574,0.11 0.446,0.01 0.222,0.01 c -0.355,0.01 1.121,-0.02 -0.746,0.02 l 0.895,-0.01 1.781,-0.01 c -0.527,-0.03 0.383,0.09 1.141,-0.13 2.859,-0.47 7.64,-2.75 12.632,-7.35 4.989,-4.5 9.989,-10.7 14.602,-17.55 18.328,-28.19 32.336,-63.55 44.879,-98.6 12.777,-35.31 23.867,-71.66 35.965,-107.95 1.097,-3.3 4.367,-5.55 7.984,-5.22 4.207,0.39 7.309,4.12 6.918,8.34 -3.551,38.26 -9.152,76.29 -16.922,114.36 -3.883,19.04 -8.789,37.97 -14.539,56.98 -2.242,7.41 -4.789,14.79 -7.558,22.16 19.976,-0.7 39.953,-1.14 59.929,-1.07 l 43.34,0.33 21.676,0.49 c 3.478,0.01 1.078,0.2 2.066,0.16 0.382,-0.04 1.182,-0.2 2.362,-0.8 5.02,-2.27 13.26,-10.99 19.82,-21.02 6.82,-10.15 13.02,-21.94 18.71,-34.16 11.39,-24.58 20.92,-51.1 29.6,-77.97 17.04,-53.98 31.83,-109.55 45.15,-165.54 l 19.82,-84.27 c 6.62,-28.15 12.97,-56.39 20.54,-84.63 1.26,-4.73 5.88,-7.87 10.85,-7.15 5.34,0.77 9.05,5.74 8.28,11.09 l -0.01,0.07 c -8.2,56.81 -14.7,114.54 -23.65,171.89 -2.09,13.38 -4.22,26.77 -6.42,40.17 l 139.82,0 c 2.69,0 4.9,2.12 4.99,4.81 l 6.99,189.37 243.91,-4.73 c 4.91,-0.08 9.21,3.59 9.75,8.56 0.58,5.3 -3.22,10.05 -8.51,10.63 l -469.04,51.51 c -0.23,0.4 -0.43,0.8 -0.65,1.2 -8.66,14.3 -18.07,29.59 -37.69,42.84 -4.95,3.21 -10.77,6.1 -17.34,8.06 -5.94,2.07 -15.61,2.89 -19.348,2.79 l -21.676,0.49 -43.34,0.33 c -28.898,0.1 -57.793,-0.61 -86.691,-2.08 -2.195,-0.12 -4.317,-0.54 -6.379,-1.12 -0.715,0.83 -1.352,1.67 -2.098,2.49 -8.218,8.99 -19.371,18.4 -35.008,22.92 -3.824,1.13 -7.656,1.86 -12.921,2.32 l -1.782,0.11 -0.894,0.05 -1.856,0.05 -3.574,0.1 -14.281,0.41 -28.574,0.81 c -19.043,0.62 -38.09,1.06 -57.137,1.3 l -28.566,0.46 -14.282,0.12 -7.554,0.03 c -3.219,0 -6.676,-0.21 -10.204,-0.55 -7.156,-0.84 -15.406,-2.48 -24.332,-7.18 -8.851,-4.5 -17.695,-12.95 -22.296,-21.95 -4.817,-8.96 -6.61,-17.42 -7.45,-24.56 -0.351,-3.12 -0.472,-6.02 -0.547,-8.85 -96.601,0.51 -193.144,0.74 -289.843,0.04 l -78.5,-1.03 c -13.352,-0.33 -25.727,-0.46 -39.992,-1.21 -14.008,-0.87 -28.411,-2.58 -43.165,-6.53 -14.664,-3.96 -30.0152,-10.61 -43.1245,-21.28 -13.2227,-10.56 -23.0313,-24.51 -29.75,-38.33 C 28.6211,2427.63 24.1289,2400.14 20.1211,2373.47 13.0625,2319.92 10.2422,2268.39 6.60938,2215.78 3.55469,2163.26 2,2110.86 1.05078,2058.51 c -1.765624,-104.74 -1.222655,-209.14 1,-313.87 l 0,-0.02 c 0.25391,-10.08 7.30078,-19.09 17.58202,-21.38 L 799.813,1549.09 c -2.977,-3.67 -5.879,-7.91 -8.583,-13.05 -1.945,-3.89 -3.605,-8.19 -4.8,-13 -0.356,-1.59 -0.66,-3.2 -0.903,-4.83 l -0.328,-2.44 -0.168,-1.66 -0.101,-1.47 -0.051,-0.74 -0.063,-2.92 0.024,-0.96 c 0.207,-10.34 3.445,-20.02 7.422,-27.25 8.207,-14.61 17.738,-22.32 26.301,-28.93 17.394,-12.65 33.742,-19.84 50.031,-26.55 16.25,-6.52 32.316,-11.74 48.359,-16.44 55.008,-15.45 109.737,-25 164.497,-32.72 56.34,-58.12 111.79,-117.82 165.57,-178.33 48.24,-54.25 95.69,-109.45 139.23,-166.38 0.83,-2.22 1.73,-4.54 2.46,-6.59 7.04,-20.04 17.62,-33.6 33.58,-42.35 10.04,-14.359 19.74,-28.929 28.29,-43.21 10.29,-17.25 19.34,-36.059 27.56,-55.469 16.39,-38.93 29.44,-80.36 40.6,-122.461 22.28,-84.352 37,-171.68 48.4,-259.199 5.56,-43.813 10,-87.789 13.04,-131.661 1.52,-21.921 2.67,-43.839 3.24,-65.48 0.51,-21.781 0.7,-42.91 -1.31,-61.84 -1.99,-19.14 -6.14,-36.828 -12.96,-50.5 -6.85,-13.75 -15.81,-23.41 -28.88,-31.281 -26.34,-15.848 -68.47,-21.68 -110.25,-23.82 -10.33,-0.469 -23.26,-1.008 -34.64,-1.918 -11.65,-0.871 -23.11,-1.903 -34.5,-2.993 -22.77,-2.187 -45.27,-4.679 -67.71,-7.238 l -133.9,-15.762 C 1070.43,99.418 981.453,89.2109 894.168,85.2305 c -21.73,-0.8985 -43.359,-1.3203 -64.137,-0.711 -10.355,0.3203 -20.511,0.9493 -29.851,2.0703 -4.672,0.5508 -9.078,1.2618 -12.996,2.0704 -3.743,0.7578 -7.477,1.8984 -8.661,2.3984 -0.968,-0.0195 -7.41,4.5703 -13.367,10.7504 -6.125,6.171 -12.492,13.703 -18.683,21.66 -12.414,16.043 -24.348,33.84 -35.832,52.082 -45.801,73.64 -86.207,153.449 -125.36,233.32 -39.008,80.16 -76.269,161.469 -112.726,243.188 -36.481,81.57 -72.848,164.082 -107.817,245.972 -34.722,82.071 -65.84,163.229 -79.812,247.739 -6.375,37.15 -9.899,75.05 -11.809,113.41 1.492,-13.58 2.586,-21.92 2.586,-21.92 L 748.668,517.48 c 15.707,-105.808 23.742,-213.8 27.219,-321.652 l 0.011,-0.289 c 0.176,-5.738 4.52,-10.648 10.399,-11.359 6.484,-0.789 12.375,3.84 13.16,10.332 7.328,60.629 10.367,121.207 10.785,182.117 l 551.888,74.75 c 4.87,0.672 8.56,4.973 8.32,9.98 -0.25,5.313 -4.75,9.411 -10.06,9.172 L 809.285,444.762 c -0.262,8.09 -0.433,16.168 -0.805,24.269 -1.281,30.61 -3.539,61.239 -6.781,91.84 -3.668,36.008 -8.996,71.981 -15.879,107.82 L 1322,741.309 c 4.87,0.679 8.56,4.98 8.32,9.98 -0.24,5.313 -4.75,9.422 -10.06,9.172 l -549.221,-25.68 c -0.781,3.047 -1.41,6.098 -2.226,9.149 -8.286,30.25 -18.325,60.289 -30.649,89.851 -3.078,7.391 -6.34,14.778 -9.719,22.02 l -9.996,20.898 c -6.761,13.871 -13.656,27.621 -20.707,41.231 -4.5,8.601 -9.254,16.992 -13.82,25.511 l 490.668,66.459 c 4.87,0.67 8.55,4.98 8.32,9.99 -0.24,5.3 -4.76,9.4 -10.06,9.16 l -522.272,-24.42 c -27.328,48.69 -55.629,96.62 -84.535,144.11 l 523.717,70.93 c 4.88,0.67 8.56,4.97 8.33,9.98 -0.25,5.31 -4.76,9.41 -10.07,9.16 l -561.352,-26.24 c -4.316,6.93 -8.555,13.9 -12.883,20.81 -22.125,34.98 -44.504,69.77 -67.105,104.41 l 374.043,43.76 c 4.804,0.55 8.519,4.63 8.507,9.59 -0.007,5.31 -4.324,9.62 -9.64,9.61 l -413.871,-0.74 c -22.551,33.83 -45.149,67.55 -68.258,101.07 l 14.891,0.46 c 22.453,0.85 44.902,1.74 67.359,3 44.902,2.4 89.809,5.57 134.707,9.98 44.906,4.28 89.809,9.33 134.711,17.09 0.726,0.13 1.34,0.7 1.473,1.47 0.168,0.99 -0.493,1.91 -1.473,2.09 -44.902,7.75 -89.805,12.81 -134.711,17.09 -44.898,4.41 -89.805,7.59 -134.707,9.98 -22.457,1.26 -44.906,2.16 -67.359,3.01 l -33.926,1.01 c -12.86,0.06 -28.488,-0.43 -45.656,-7.2 -8.469,-3.41 -16.872,-8.56 -23.872,-14.77 -7.007,-6.21 -12.621,-13.24 -16.968,-20.16 -8.719,-13.95 -13.375,-27.38 -16.981,-40.13 -6.816,-25.55 -9.383,-49.36 -11.344,-72.92 -3.484,-47.06 -3.39,-92.36 -2.445,-138.3 1.184,-45.96 4.535,-92.48 11.914,-138.84 7.289,-46.37 18.883,-92.23 33.27,-136.319 14.344,-44.172 31.043,-86.781 48.148,-128.75 69.223,-166.629 139.672,-331.902 217.809,-495.242 39.383,-81.578 79.554,-162.637 128.101,-241.93 12.321,-19.801 25.227,-39.4802 40.176,-59.0701 7.531,-9.7891 15.551,-19.5703 25.164,-29.4101 9.844,-9.5782 20.43,-20.4688 40.281,-29.2579 9.196,-3.789 16.348,-5.58199 23.567,-7.2109 7.062,-1.51172 13.754,-2.58984 20.223,-3.41016 12.949,-1.62109 25.218,-2.398434 37.3,-2.87109 24.114,-0.898438 47.41,-0.3984375 70.535,0.53125 92.204,4.14063 181.822,14.4609 271.392,24.6484 l 133.7,15.5899 c 22.17,2.5117 44.31,4.9414 66.23,7.0312 l 32.62,2.7891 c 11,0.8398 20.51,1.2227 32.61,1.7695 23.8,1.2305 47.83,3.3321 72.9,8.1524 24.9,4.9179 51.31,12.5703 76.87,27.8984 25.61,15.0001 48.29,39.8011 60.89,66.5821 12.98,26.769 18.24,53.758 20.87,79.168 1.26,12.691 1.81,25.391 1.88,37.43 0.09,11.91 -0.11,23.73 -0.46,35.32 -0.71,23.23 -2.03,46.172 -3.71,69.031 -3.37,45.719 -8.16,91.09 -14.1,136.36 -11.89,90.519 -28.67,180.468 -53.13,269.589 -12.4,44.532 -26.82,88.852 -45.79,132.512 -6.48,14.789 -13.55,29.5 -21.42,44.07 l 832.37,70.609 781.26,-372.909 c -5.47,-23.602 -12.29,-47.129 -20.69,-69.223 l -0.29,-0.758 c -2.04,-5.351 -0.04,-11.578 5.02,-14.672 5.73,-3.508 13.21,-1.707 16.71,4.012 18.34,29.941 31.59,61 42.48,93.66 10.87,32.539 18.3,66.371 22.61,100.809 1.85,16.179 2.99,32.57 3.38,49.011 l 348.91,46.84 c 4.72,0.641 8.37,4.68 8.36,9.578 -0.01,5.313 -4.34,9.622 -9.66,9.614 l -350.57,-0.723 c -2.99,30.141 -6.31,60.973 -14.24,92.512 -4,16.398 -9.45,33.039 -16.36,49.249 l 308.97,41.48 c 4.72,0.64 8.36,4.68 8.35,9.57 -0.01,5.32 -4.33,9.63 -9.65,9.62 l -343.25,-0.71 c -20.7,26.72 -44.92,49.28 -69.96,68.94 -50.63,39.19 -104.11,70.07 -158.13,98.8 l 166.19,32.85 c 4.44,0.88 7.8,4.81 7.78,9.51 -0.02,5.33 -4.35,9.64 -9.69,9.62 l -258.4,-0.85 c -2.11,-0.02 -4.44,-0.22 -6.58,-0.65 -0.4,-0.08 -0.74,-0.25 -1.13,-0.34 -52.75,23.9 -106.48,45.2 -160.77,64.6 l 128.1,25.33 c 4.44,0.88 7.8,4.81 7.78,9.51 -0.01,5.33 -4.35,9.64 -9.69,9.62 l -258.4,-0.84 c -62.6,19.09 -125.76,36.11 -189.49,50.63 -29.68,6.8 -59.29,13.26 -89.05,19.3 0.3,0.39 0.56,0.7 0.87,1.14 0.83,1.21 1.97,2.83 2.45,3.73 l 1.43,2.6 0.17,0.33 c 3.79,7.03 1.56,15.9 -5.29,20.25 -7.17,4.56 -16.66,2.44 -21.22,-4.72 -1.61,-2.54 -3.88,-4.92 -6.53,-7.17 -6.43,-5.49 -15.38,-10.22 -24.69,-14.38 -13.22,-5.96 -27.63,-10.69 -42.24,-14.89 -29.34,-8.3 -59.87,-14.2 -90.53,-19.24 -61.36,-10.36 -123.8,-16.68 -186.33,-21.09 -125.08,-9.34 -250.93,-11.34 -376.5,-8.7 -125.55,1.95 -251.05,10.29 -374.74,25.41 -61.65,7.83 -123.304,17.9 -181.319,33.62 -14.43,3.9 -28.59,8.25 -41.848,13.25 -13.09,4.94 -25.883,10.88 -34.223,16.8 -0.39,0.26 -0.683,0.52 -1.042,0.79 3.906,3.05 9.062,6.31 14.742,9.34 l 0.394,0.22 c 4.645,2.5 8.387,5.98 11.321,9.99 l 112.898,-25.2 0.203,-0.05 c 1.294,-0.28 2.624,-0.44 4.004,-0.48 36.58,-0.99 72.86,-1.29 109.21,-1.3 42.1,-19.97 233.51,-25.08 462.3,-10.7 87.32,5.49 168.85,13.12 238.53,21.84 136.56,17.09 227.49,38.4 226.37,56.17 -0.19,3.14 -3.37,6.03 -9.05,8.66 l 65.51,4.95 c 79.01,-15.71 157.63,-31.98 237.01,-47.18 l 241.76,-46.15 c 80.65,-15.2 161.28,-30.31 242.28,-44.76 l 61.02,-10.49 31.05,-4.83 c 9.87,-1.44 19.66,-2.95 29.19,-4.64 18.93,-3.36 37.59,-7.47 49.05,-13.18 5.74,-2.72 11.87,-7 20.7,-13.27 8.62,-6.12 18.38,-12.65 28.03,-18.42 19.23,-11.6 39.63,-21.5 58.92,-30.01 19.43,-8.61 38.71,-16.54 58.02,-24.29 38.6,-15.44 77.21,-29.98 115.89,-44.26 77.36,-28.48 154.93,-55.7 232.66,-82.42 l 29.17,-9.99 c 9.57,-3.23 17.26,-6.11 25.6,-9.79 16.24,-7.18 31.42,-15.92 45.03,-26.41 27.35,-20.85 48.31,-48.75 62.55,-81.34 14.47,-32.51 22.45,-69.25 26.2,-107.159 1.9,-18.961 2.7,-38.281 2.78,-57.762 0.08,-20.019 -0.59,-37.57 -3.17,-56.269 -4.91,-36.988 -15.26,-74 -29.53,-109.289 -14.32,-35.231 -32.64,-69.153 -54.96,-98.41 -11.14,-14.539 -23.36,-27.903 -36.19,-38.379 -6.27,-5.153 -13.19,-9.774 -18.91,-12.723 -6.1,-3.199 -14.98,-6.469 -23.75,-9.437 -36.11,-11.93 -75.93,-21.282 -115.24,-30.204 -79.15,-17.687 -159.41,-32.628 -240.12,-48.058 l -30.51,-5.969 c -10.14,-2.019 -21.26,-4.492 -31.18,-6.891 -20.3,-4.929 -35.9,-8.199 -51.57,-7.628 -31.52,0.91 -68.45,15.117 -104.06,31.027 -17.91,8.082 -35.86,16.941 -53.61,26.09 l -54.27,28.301 -108.9,57.031 -218.4,113.16 c -145.8,75.109 -292.55,148.469 -440.28,219.98 -6.87,3.297 -15.31,0.879 -19.27,-5.793 -4.2,-7.066 -1.88,-16.187 5.19,-20.386 141.11,-83.864 283.26,-165.774 426.46,-245.782 71.59,-39.992 143.25,-79.89 215.19,-119.289 L 2814,509.539 c 18.13,-9.777 35.86,-19.609 54.39,-29.328 18.63,-9.75 37.4,-19.172 56.8,-28.07 19.4,-8.879 39.35,-17.27 60.69,-24.313 21.26,-6.949 44.46,-12.746 69.77,-13.668 12.56,-0.449 25.4,0.481 37.24,2.379 11.88,1.852 22.7,4.422 32.63,6.711 10.02,2.332 18.93,4.25 28.9,6.18 l 29.88,5.66 c 80.45,14.871 161.54,29.43 242.56,46.988 40.67,9.024 80.9,18.012 122.78,31.492 10.63,3.61 21.16,7.16 33.36,13.219 12.56,6.391 22.64,13.391 32.31,21.121 19.04,15.379 34.59,32.559 48.51,50.43 27.62,35.851 48.68,74.68 65.52,115.23 16.68,40.578 28.95,83.071 35.16,127.36 3.23,21.91 4.25,45.429 4.23,66.398 0.06,21.5 -0.69,43.203 -2.73,65.051 -4.09,43.581 -12.99,88.191 -31.63,130.881 -18.45,42.51 -48.09,82.43 -86.19,111.25 -18.88,14.52 -39.53,26.32 -60.79,35.68 -10.4,4.63 -21.96,8.87 -31.8,12.18 l -29.03,9.9 c -77.37,26.52 -154.57,53.53 -231.14,81.63 -38.26,14.08 -76.4,28.42 -113.94,43.4 -18.75,7.5 -37.39,15.15 -55.45,23.14 -18.22,8.03 -34.76,16.11 -50.67,25.67 -7.94,4.74 -15.24,9.6 -23.35,15.33 -7.9,5.54 -18.48,13.31 -31.27,19.47 -25.68,12.01 -47.84,15.54 -69.09,19.62 -10.66,1.88 -21.13,3.48 -31.55,4.99 l -29.72,4.59 -60.24,10.05 c -65.39,11.14 -130.85,22.81 -196.31,34.58 134.27,10.42 315.75,27.06 328.92,41.71 12.94,14.37 28.94,116.2 38.79,187.72 5.08,12.55 9.03,24.9 12.52,36.96 11.5,40.82 19.62,80.5 27.25,120.59 7.61,40.02 14.67,79.79 20.54,120.18 l 0.01,0.1 c 0.53,2.99 0.65,6.26 0.22,9.43 l -0.14,1.05 c -22.93,172.57 -47.37,344.9 -73.26,517.03 -12.91,86.07 -25.32,172.2 -38.83,258.24 l -10.21,64.59 -2.63,16.24 -1.37,8.25 -0.76,4.41 -0.73,3.47 -0.25,0.99 -0.44,1.61 -1.22,3.72 -1.43,3.65 -1.16,2.42 c -0.75,1.47 -1.59,3.16 -2.37,4.37 -1.61,2.66 -3.28,5.09 -4.89,7.12 -3.28,4.23 -6.48,7.52 -9.57,10.39 -6.2,5.73 -12.05,9.97 -17.76,13.78 -22.71,14.65 -44.02,23.52 -65.63,32.13 -21.52,8.39 -43.08,15.34 -64.71,21.7 -43.32,12.59 -86.71,22.81 -131.8,29.98 -22.73,3.46 -45.67,6.32 -71.52,5.61 -12.87,-0.52 -26.92,-1.63 -43.09,-7.45 -8,-2.93 -16.6,-7.46 -24.27,-13.9 -7.72,-6.36 -14.06,-14.58 -18.33,-22.71 -8.58,-16.52 -10.6,-31.49 -11.77,-44.78 -0.97,-13.36 -0.53,-25.59 0.27,-37.45 1.74,-23.63 5.11,-45.82 8.73,-67.79 7.3,-43.51 15.64,-85.99 23.69,-128.87 32.39,-171.11 67.52,-341.62 104.62,-511.81 1.22,-5.47 6.4,-9.35 12.11,-8.74 6.12,0.67 10.55,6.18 9.89,12.3 -18.76,173.39 -42.55,345.95 -67.7,518.13 l -18.63,128.74 c -2.88,21.04 -5.37,42.04 -6.23,61.85 -0.4,9.85 -0.35,19.43 0.52,27.76 0.82,8.28 2.83,15.2 4.63,17.92 1.93,2.61 1.69,2.54 6.2,4.39 4.36,1.56 12.28,2.65 21.09,2.71 17.72,0.25 38.15,-2.32 58.33,-5.84 40.75,-7.2 82.06,-17.66 122.08,-30.07 20.01,-6.24 39.75,-13.16 58.72,-20.68 18.73,-7.5 37.57,-16.12 51.32,-25.32 3.33,-2.23 6.21,-4.51 7.98,-6.2 l 1.19,-7.62 2.44,-15.99 9.59,-64.44 39.02,-258.05 c 23.33,-156.01 47.82,-311.86 73.28,-467.55 l -334.41,13.56 c -8.59,0.32 -16.26,-5.92 -17.44,-14.62 -1.26,-9.25 5.23,-17.77 14.48,-19.01 l 339.86,-46.04 c -12.98,-68.95 -26.36,-138.76 -43.64,-204.22 -5.04,-18 -11.01,-35.18 -18.24,-48.19 -3.6,-6.43 -7.44,-11.34 -10.85,-14.27 -3.46,-2.92 -6.37,-4.48 -11.83,-5.81 -2.72,-0.63 -6.01,-1.09 -9.77,-1.36 -4.01,-0.3 -7.43,-0.34 -13.16,-0.38 l -30.69,-0.87 -59.99,-1.82 c -39.78,-0.8 -79.69,-1.1 -119.39,-0.59 -19.39,0.35 -39.6,0.89 -55.1,3.6 -3.68,0.66 -6.96,1.55 -8.67,2.21 -0.05,0.02 -0.06,0.02 -0.11,0.04 -0.19,2.16 -0.2,5.28 0.03,8.73 1.38,17.88 4.42,37.69 7.13,57.5 2.96,19.84 5.65,39.89 8.11,59.98 4.84,40.21 8.87,80.8 9.32,121.68 0.05,4.64 -2.98,8.96 -7.66,10.3 -5.61,1.6 -11.45,-1.65 -13.05,-7.26 -11.09,-38.84 -21.57,-77.5 -31.92,-116.39 -5.14,-19.44 -10.29,-38.88 -14.99,-58.59 -4.91,-19.72 -9.58,-39.48 -12.62,-61.65 -0.72,-5.84 -1.39,-12.17 -0.96,-20.16 0.44,-7.76 2.43,-18.65 9.37,-28.64 6.92,-9.96 16.3,-15.72 23.58,-19.03 7.52,-3.41 14.02,-5.16 20.17,-6.61 24.06,-5.11 44.29,-5.98 65.08,-7.39 40.78,-2.32 81.44,-3.69 122.19,-3.85 l 60.8,0.06 29.71,0.01 c 1.39,-0.01 3,-0.01 4.53,-0.01 l -6.86,-8.43 c -26.23,-3.4 -303.24,-38.97 -379.08,-39.93 l -3,-0.02 c -65.59,0 -242.06,25.06 -313.29,35.6 l 143.31,260.16 c 5.43,9.91 2.35,22.55 -7.33,28.72 -10.09,6.42 -23.48,3.47 -29.91,-6.63 l -203.48,-319.11 -540.25,-40.89 c 3.76,43.07 1.77,86.81 -7.3,129.38 -1.87,8.88 -4.09,17.69 -6.52,26.43 -6.41,22.97 -14.71,45.43 -24.93,67 -6.4,13.5 -13.65,26.6 -21.54,39.36 17.31,12.83 29.37,41.22 29.37,74.28 0,45.07 -22.38,81.6 -49.97,81.6 -27.6,0 -49.97,-36.53 -49.97,-81.6 0,-7.75 0.7,-15.22 1.94,-22.32 l -30.91,0.28 c 0.06,0.65 0.21,1.26 0.22,1.92 l 0.01,0.7 c 0.52,37.04 3.1,75.59 8.59,112.36 2.82,18.44 6.42,36.62 11.29,53.96 4.7,17.32 10.71,34.01 18.59,47.82 7.84,13.95 17.71,23.52 26.85,26.32 15.83,5.08 32.63,8.11 47.41,7.22 14.96,-0.77 28.07,-5.41 39.83,-13.75 11.76,-8.35 22.09,-20.67 30.57,-35.22 17.1,-29.21 27.32,-65.25 34.86,-101.61 7.39,-36.63 11.63,-74.5 14.31,-112.61 5.25,-73.82 6.02,-148.01 -7.18,-220.36 -0.37,-2 -0.63,-4 -1.01,-6 l -0.06,-0.26 c -1.04,-5.34 1.68,-10.9 6.85,-13.26 6.06,-2.77 13.22,-0.08 15.98,5.97 16.9,37.13 25.8,77.05 30.92,116.87 2.85,21.92 4.28,43.94 4.81,65.92 17.94,1.66 35,5.25 51.44,9.59 l 0.15,0.03 c 12.09,3.21 21.88,13.1 24.31,26.22 3.21,17.3 6.13,34.49 8.96,51.65 l 195.56,0.86 c -6.67,-24.06 -13.17,-48.26 -19.15,-72.95 -2.93,-12.18 1.1,-25.53 11.49,-33.92 l 0.06,-0.06 c 21.8,-17.61 45.9,-34.18 75.71,-44.97 14.9,-5.27 31.41,-9 49.42,-8.79 8.99,0.13 18.29,1.27 27.67,3.9 4.7,1.31 9.39,3.01 14.12,5.2 2.37,1.1 4.74,2.32 7.19,3.76 1.22,0.72 2.47,1.5 3.79,2.39 1.53,1.08 2.22,1.45 5.06,3.82 l 0.21,0.18 0.5,0.43 c 4.77,4.13 8.34,9.73 9.95,16.31 l 70.98,290.11 c 29.55,-11.03 59.06,-20.58 89.46,-29.49 17.59,-5.15 35.46,-9.71 53.88,-13.58 18.54,-3.77 37.2,-7.33 58.73,-8.14 5.43,-0.18 11.08,-0.18 17.29,0.28 3.11,0.24 6.31,0.56 9.84,1.16 3.08,0.42 8.29,1.72 9.64,2.08 12.44,3.37 24.85,8.34 37.02,17.48 12.03,9.01 21.59,21.62 27.28,33.82 5.79,12.26 8.75,24.02 10.63,35.01 3.57,21.99 3.34,41.74 2.46,60.93 -0.93,19.15 -3.2,37.6 -5.7,55.81 -5.14,36.28 -11.88,72.04 -19.13,106.6 -7,34.85 -14.45,69.62 -22.19,104.32 -15.46,69.41 -32.36,138.49 -51.61,207.17 -2.25,8 -10.01,13.49 -18.56,12.58 -9.53,-1 -16.44,-9.56 -15.42,-19.1 7.39,-70.76 16.52,-141.23 26.66,-211.44 5.05,-35.12 10.27,-70.2 15.78,-105.22 5.29,-35.28 11.15,-69.41 14.74,-103.59 1.85,-17.01 3.13,-33.9 3.74,-50.21 0.55,-16.23 0.11,-32.2 -2.32,-45.23 -1.19,-6.48 -2.97,-11.98 -4.87,-15.74 -2.01,-3.75 -3.54,-5.63 -5.74,-7.31 -2,-1.62 -6.29,-3.56 -10.95,-4.82 -2.95,-0.75 -2.04,-0.53 -3.36,-0.75 -0.84,-0.16 -2.06,-0.29 -3.36,-0.38 -2.65,-0.19 -5.89,-0.22 -9.32,-0.08 -13.96,0.58 -30.43,3.01 -46.64,6.26 -16.34,3.28 -32.93,7.29 -49.58,11.48 -30.71,7.81 -61.77,17.32 -92.07,26.86 l 83.65,341.88 c 2.18,8.99 -3.06,18.24 -12.03,20.88 -9.23,2.71 -18.93,-2.58 -21.65,-11.82 l -198.32,-674.98 c -2.54,-0.56 -5.31,-0.96 -8.39,-0.98 -7.64,-0.13 -16.57,1.59 -25.76,4.87 -12.75,4.53 -25.77,11.94 -38.47,20.81 15.78,62.04 34.78,124.9 53.63,187.24 21.26,69.58 43.22,139.06 65.46,208.46 41.49,129.31 84.01,258.45 127.09,387.25 l 69.99,-9.16 c 19.27,-2.53 36.93,11.04 39.46,30.3 1.57,12.03 -3.13,23.44 -11.57,30.92 10.18,4.79 18.04,15.12 19.74,28.05 2.52,19.27 -9.46,36.73 -26.77,39 l -4.3,0.56 31.26,320.04 c 0.45,-0.02 0.9,-0.07 1.35,-0.1 5.47,-0.02 10.94,-0.02 16.37,0.57 10.45,1.06 20.83,3.22 31.14,6.24 17.65,-1.89 35.4,-3.14 53.3,-3.37 10.07,-0.17 20.23,0.25 30.39,0.68 10.21,0.77 20.42,1.47 30.82,3.44 4.47,0.87 8.61,3.66 10.96,7.97 4.2,7.69 1.37,17.31 -6.31,21.5 -9.29,5.07 -18.79,8.88 -28.27,12.75 -9.54,3.53 -19.08,7.06 -28.71,9.99 -19.25,5.96 -38.67,10.79 -58.25,14.67 l -7.83,0.31 c -11.05,1.57 -22.04,2.16 -32.94,1.63 -1.54,-0.06 -3.07,-0.26 -4.61,-0.41 l 1.21,12.41 c 4.45,12.38 8.94,24.75 13.55,36.97 l 7.86,20.23 c 2.67,6.45 5.47,13.5 8.02,17.84 l 2.01,3.06 2.75,3.9 6.17,8.13 c 4.32,5.48 8.9,10.99 13.55,16.48 18.73,21.98 38.72,43.62 59.08,64.83 20.3,21.31 40.93,42.4 61.89,63.19 41.81,41.69 84.16,82.96 126.58,124.17 84.98,82.29 168.79,165.83 251.25,250.77 132.85,136.15 265.32,272.79 394.74,412.64 1.74,1.81 3.27,3.42 4.32,4.55 38.87,42.31 174.2,132.85 232.33,170.94 l 2.22,-16.72 c 1.42,-9.67 2.58,-18.83 5.03,-30.21 1.3,-5.65 2.8,-11.43 5.51,-18.11 1.38,-3.35 3.03,-6.91 5.63,-10.97 2.72,-4.03 6.02,-8.76 13.04,-13.49 6.54,-4.81 18.5,-7.65 27.19,-5.7 8.88,1.69 14.18,5.28 18.29,8.27 7.88,6.19 11.75,11.64 15.33,16.92 6.84,10.45 11.01,20.19 14.65,29.98 3.58,9.76 6.32,19.47 8.48,29.2 4.1,19.49 6.65,38.98 6.09,58.81 -0.13,3.84 -2.12,7.62 -5.63,9.79 -5.59,3.45 -12.91,1.72 -16.36,-3.86 -10.26,-16.57 -18.47,-33.24 -27.15,-49.21 -3.9,-7.38 -7.91,-14.91 -11.9,-21.95 -0.35,2.69 -0.69,5.4 -1.03,8.06 l -3.21,27.74 c -7.88,74.67 -16.46,150 -26.88,225.07 -10.84,75.07 -23.09,150.14 -41.33,224.81 -1,4.13 -2.12,8.24 -3.17,12.35 l 107.81,-20.26 c 1.77,-0.33 3.62,0.47 4.54,2.13 1.15,2.07 0.4,4.68 -1.67,5.83 l -101.06,55.9 -3.48,158.09 c -0.02,0.68 -0.07,1.46 -0.14,2.15 l -67.21,608.79 120.64,88.51 348.47,-716.05 180.59,-370.73 181.41,-370.34 c 2.63,-5.36 9.09,-7.66 14.52,-5.13 5.51,2.57 7.88,9.11 5.31,14.61 l -174.36,373.7 -175.18,373.33 -331.88,706.53 144.11,-2.99 c -6.39,-5.01 -10.45,-8.67 -11.01,-9.19 -1.33,-1.21 -1.9,-3.05 -1.49,-4.8 0.4,-1.76 1.72,-3.16 3.44,-3.67 44.01,-13.06 83.4,-31.32 82.66,-38.31 -1.88,-17.52 -3.7,-156.94 -3.78,-162.87 -0.02,-1.62 0.74,-3.14 2.04,-4.1 0.87,-0.63 1.91,-0.96 2.96,-0.96 0.52,0 1.05,0.08 1.55,0.25 1.73,0.57 34.02,11.25 55.08,20.79 l 2.25,-2.87 8.28,-10.52 66.79,-85.65 134.55,-170.79 c 44.84,-56.94 89.53,-114 134.93,-170.52 38.55,-48.23 77.04,-96.54 115.85,-144.58 4.6,-9.17 10.06,-17.88 16.5,-25.74 21.14,-26.03 50.38,-44.75 82.25,-52.95 30.94,-8.27 63.78,-7.31 94.01,2.84 l 123.24,-123.49 c -17.87,0.61 -35.74,1.25 -53.66,1.59 -25.34,0.47 -50.49,0.92 -76.57,0.05 -6.61,-0.3 -13.12,-0.53 -20.76,-1.59 -10.29,-1.57 -19.31,-6.04 -26.14,-10.84 -13.88,-9.83 -22.98,-21.19 -31.23,-32.47 -1.57,-2.2 -2.9,-4.45 -4.38,-6.67 -0.39,0.02 -0.78,0.12 -1.18,0.13 -34.4,0.74 -63.33,-46.86 -64.64,-106.35 -1.32,-59.5 25.51,-108.33 59.9,-109.09 9.65,-0.21 18.84,3.5 27.15,10.1 l 107.4,0 155.82,-308.98 c 1.19,-2.36 4.02,-3.49 6.53,-2.51 2.68,1.04 4.01,4.05 2.97,6.73 l -118.23,304.76 50.91,0 141.93,-277.34 c 1.21,-2.32 4,-3.45 6.5,-2.49 2.68,1.03 4.03,4.03 3.01,6.71 l -104.39,273.12 405.21,0 144.97,-363.34 c -14.91,-0.98 -29.83,-2.03 -44.76,-2.95 -18.99,-1.16 -37.95,-2.74 -56.91,-4.3 -16.49,43.34 -34.59,85.78 -54.29,127.99 -10.96,22.8 -21.45,45.4 -35.32,68.46 -14.75,24.89 -37.39,47.8 -65.46,60.67 -27.99,12.92 -59.82,16.51 -89.91,9.7 -32.76,-7.56 -59.07,-29.88 -73.03,-59.51 -6.86,-14.88 -10.05,-32.13 -8.05,-48.82 0.94,-8.32 3.06,-16.42 6.07,-23.93 0.79,-2.05 1.48,-3.6 2.13,-4.89 l 1.97,-4.18 c 1.26,-2.77 2.68,-5.52 4.09,-8.26 11.43,-21.92 24.75,-43.14 44.8,-62.33 0.25,-0.24 0.59,-0.42 0.96,-0.47 0.92,-0.11 1.75,0.53 1.87,1.45 3.47,27.69 -0.87,52.98 -7.88,77.24 -0.9,3.04 -1.79,6.04 -2.88,9.03 l -2.83,8.25 c -1.35,4.12 -2.13,8.23 -2.32,12.28 -0.44,8.11 1.56,16.12 5.55,23.59 7.87,15.07 24.51,26.65 40.45,29.57 18.56,3.61 38.71,0.7 55.57,-7.83 17.01,-8.49 31.29,-22.05 41.75,-39.93 11.46,-19.76 22.95,-41.84 33.84,-63.69 l 53.76,-108.64 c -17.47,-1.61 -34.94,-3.26 -52.39,-5.2 l -1.78,-0.2 c -10.96,-1.22 -19.9,-10.01 -20.89,-21.41 -1.12,-12.75 -1.86,-25.55 -2.7,-38.33 l -81.55,-53.49 -36.34,118.41 c -2.63,8.5 -10.23,15.03 -19.65,15.81 l -420.5,34.7 -2.51,0.22 c -3.49,0.27 -7.1,-0.32 -10.5,-1.91 -10.51,-4.9 -15.05,-17.38 -10.16,-27.88 l 54.49,-116.87 c 1.57,-3.36 5.3,-5.32 9.08,-4.51 4.38,0.95 7.17,5.27 6.23,9.65 l -20.26,94 375.26,-30.97 35.31,-115.08 c 0.13,-0.41 0.35,-0.78 0.5,-1.19 l -11.65,-7.64 c -1.85,-1.21 -2.68,-3.5 -2.04,-5.62 0.63,-2.11 2.57,-3.55 4.78,-3.55 0,0 0.01,0 0.02,0 l 330.32,1.52 c -11.04,-9.91 -18.02,-24.25 -18.02,-40.25 0,-29.9 24.23,-54.14 54.13,-54.14 29.89,0 54.13,24.24 54.13,54.14 0,16.18 -7.14,30.66 -18.39,40.58 l 293.19,1.35 47.04,-40.27 c 4.11,-3.51 9.73,-5.57 14.73,-5.41 48.66,0.23 121.13,0.45 155.88,0.33 0.17,-23.85 -0.3,-66.56 -1.08,-105.66 0,-0.25 0.06,-0.48 0.06,-0.72 l -78.29,0.27 c 13.15,7.95 22.02,22.25 22.02,38.73 0,25.07 -20.32,45.4 -45.39,45.4 -25.07,0 -45.4,-20.33 -45.4,-45.4 0,-16.35 8.74,-30.57 21.72,-38.55 l -12.8,0.04 -452.86,1.63 -334.83,0.86 c 8.57,9.57 13.82,22.17 13.82,36.02 0,29.9 -24.24,54.14 -54.13,54.14 -29.89,0 -54.13,-24.24 -54.13,-54.14 0,-13.75 5.17,-26.26 13.62,-35.82 l -151.35,0.4 -22.36,121.25 193.94,22.47 c 4.77,0.54 8.48,4.59 8.48,9.51 0.01,5.29 -4.27,9.6 -9.57,9.61 l -220.22,0.4 -37.52,1.62 -34.87,-29.07 29.04,-135.56 -150.83,0.39 9.92,632.21 c 0.04,2.47 -1.74,4.6 -4.18,5 -2.48,0.47 -4.81,-1.03 -5.57,-3.39 L 4284.09,3912.6 c -15.67,4.76 -31.69,8.4 -47.87,11.02 -0.77,0.12 -1.67,0.21 -2.47,0.24 l -0.22,0.01 c -20.62,0.65 -41.45,0.48 -62.91,-1.87 l -303.1,425.13 c 2.57,10.25 4.77,20.56 6.57,30.89 4.03,22.98 6.06,46.03 6.61,69.19 0.46,22.51 0.41,44.45 0.19,66.63 -0.35,44.22 -2.25,88.29 -4.56,132.29 -4.27,77.46 -10.58,154.53 -19.37,231.58 4.89,10.81 7.77,23.72 7.77,37.61 0,37.95 -21.25,68.71 -47.47,68.71 -26.23,0 -47.48,-30.76 -47.48,-68.71 0,-35.34 18.44,-64.41 42.15,-68.25 3.93,-67.81 7.69,-135.72 10.46,-203.49 1.79,-43.52 2.89,-87.03 3.63,-130.41 0.28,-21.62 0.38,-43.5 0,-64.79 -0.5,-20.63 -2.22,-41.34 -5.3,-61.58 -6.26,-40.45 -18.81,-79.72 -39.59,-113.33 -20.49,-33.59 -49.49,-61.45 -84.78,-76.28 -17.55,-7.46 -36.45,-11.71 -55.73,-12.57 -19.18,-0.63 -39.33,1.08 -57.31,5.93 -18.15,4.85 -34.8,13.19 -49.01,26.31 -14.05,13.14 -25.65,30.98 -33.05,51.84 l -0.05,0.14 c -0.15,0.44 -0.53,0.78 -1.02,0.87 -0.72,0.13 -1.42,-0.35 -1.55,-1.08 -4.14,-22.81 0.93,-47.55 13.78,-68.94 12.75,-21.61 34.19,-38.32 57.37,-47.72 23.46,-9.56 47.54,-13.09 72.07,-12.88 24.52,0.26 49.22,4.92 72.3,13.85 46.45,17.79 84.87,52.42 110.75,92.87 8.86,13.8 16.36,28.22 22.84,42.99 15.25,-27.22 31.12,-54 46.96,-80.8 23.32,-38.23 46.83,-76.32 71.25,-113.77 23.82,-37.87 49.37,-74.51 74.03,-111.79 12.52,-18.5 25.5,-36.68 38.23,-55.03 l 19.18,-27.46 2.29,-3.28 c -8.32,-3.4 -14.09,-7.9 -14.46,-14.37 -0.62,-11.29 -0.03,-49.34 -0.01,-50.95 0.03,-1.86 1.1,-3.54 2.76,-4.38 3.13,-1.59 315.63,-161.47 428.88,-405.67 8.34,-17.97 16.38,-36.6 24.17,-55.79 85.5,-211.03 138.13,-490.29 168.43,-702.29 12.56,-87.84 21.28,-164.12 26.93,-219.21 3.57,-90.74 6.04,-181.63 8.04,-272.54 5.01,-215 7.98,-430.25 9.63,-645.34 l 0.01,-0.39 c 0,-0.55 0.03,-1.11 0.07,-1.66 1.06,-12.83 12.3,-22.38 25.13,-21.33 l 130.42,10.67 c -4.32,-69.03 -12.63,-147.18 -28.49,-212.67 -38.08,-157.29 -66.85,-237.94 -67.14,-238.74 -0.13,-0.38 -0.22,-0.78 -0.27,-1.19 -0.25,-2.42 -14.61,-141.91 -27.55,-272.648 -4.78,3.969 -9.58,7.898 -14.25,12.027 -13.94,12.34 -27.42,25.313 -40.46,38.731 -26.08,26.859 -50.39,55.531 -73.01,85.441 -22.46,29.981 -43.82,61.168 -62.89,92.729 -18.64,31.52 -34.12,64.6 -46.29,98.92 -24.44,68.69 -35.14,142.17 -39.9,217.15 -4.73,75.07 -4.27,151.69 -4.27,228.88 0.03,38.6 0.14,77.48 -0.81,116.99 -1.03,39.49 -3,79.85 -9.01,121.06 -5.88,41.13 -16.29,82.99 -31.43,122.54 -15.02,39.65 -34.15,76.77 -54.76,111.85 -20.65,35.1 -42.87,68.35 -65.64,100.76 -11.31,16.09 -23.08,32.34 -34.57,47.96 -12.08,16.4 -25.38,33.19 -39.14,48.9 -27.62,31.65 -58.13,60.94 -90.95,87.31 -33.01,26.13 -68.29,49.3 -105.1,69.38 -36.81,20.11 -75.12,37.18 -114.39,51.26 -19.63,7.04 -39.51,13.36 -59.59,18.94 -20.14,5.28 -40.47,9.86 -60.96,13.66 -20.5,3.82 -41.15,6.89 -62.05,9.15 -6.88,0.75 -14.23,1.42 -21.14,1.97 -8.95,7.76 -20.28,20.24 -30.03,32.55 -10.17,12.8 -20.04,27.03 -26.5,38.84 -0.53,0.99 -0.99,1.89 -1.45,2.81 l 2.04,13.83 8.06,57.6 c 5.29,38.21 10.79,76.31 15.66,114.51 l 29.92,229.02 c 21.3,152.36 40.09,305.44 70.83,455.76 7.63,37.68 15.49,74.94 25.39,111.51 4.93,18.32 10.29,36.5 16.2,54.48 6.14,17.88 12.82,35.56 20.21,52.88 14.79,34.56 32.24,68.09 54.66,97.5 11.23,14.63 23.75,28.18 37.94,39.23 7.09,5.51 14.6,10.39 22.47,14.17 3.92,1.89 7.93,3.51 11.97,4.75 3.82,1.22 8.54,2.12 11.21,2.23 l 0.86,0.04 c 4.98,0.2 9.06,4.21 9.29,9.28 0.24,5.37 -3.92,9.92 -9.29,10.16 -7,0.31 -11.88,-0.56 -17.41,-1.67 -5.35,-1.16 -10.49,-2.75 -15.46,-4.65 -9.96,-3.81 -19.25,-8.81 -27.98,-14.47 -17.58,-11.26 -32.31,-25.76 -45.73,-40.89 -26.9,-30.45 -47.16,-65.23 -64.48,-100.81 -35.06,-71.08 -56.13,-147.48 -75.33,-222.43 -19.09,-75.27 -35.85,-150.91 -51.6,-226.71 -15.79,-75.79 -30.29,-151.78 -43.76,-227.94 -13.58,-76.14 -26.46,-152.37 -38.89,-228.65 l -18.36,-114.43 -9.1,-57.09 -2.34,-14.09 -1.19,-6.68 -0.75,-3.61 -0.24,-1.41 c -0.15,-1.09 -0.26,-2.18 -0.32,-3.26 -0.1,-2.01 -0.04,-2.95 0.01,-4.41 0.82,-9.72 3.16,-15.29 5.31,-21 2.24,-5.56 4.68,-10.47 7.21,-15.27 10.19,-18.85 21.77,-35.31 34.25,-51.38 12.66,-15.98 25.71,-31.24 42.27,-45.73 4.25,-3.61 8.7,-7.18 14.32,-10.71 2.85,-1.77 5.96,-3.54 10.12,-5.19 2.06,-0.82 4.55,-1.63 7.49,-2.2 1.33,-0.27 3.97,-0.56 4.06,-0.55 l 1.89,-0.16 c 9.79,-0.75 18.77,-1.56 28.15,-2.62 18.56,-2.12 37.09,-4.97 55.49,-8.52 73.63,-14.18 145.37,-38.88 211.26,-74.13 65.92,-35.18 125.82,-81.29 175.7,-136.63 12.53,-13.85 24.26,-28.12 35.71,-43.12 11.71,-15.3 23.13,-30.48 34.42,-45.93 22.52,-30.83 44.22,-62.11 63.9,-94.25 19.66,-32.15 37.3,-65.15 50.94,-99.43 13.77,-34.26 23.3,-69.84 29.23,-106.55 11.7,-73.47 11.94,-150.58 13.83,-227.64 1.69,-77.18 2.86,-154.76 9.53,-232.89 6.7,-77.92 19.78,-157.14 48.44,-232.18 14.24,-37.44 32.19,-73.56 53.35,-107.509 21.26,-33.692 44.36,-65.5 69.07,-96.301 24.75,-30.711 51.26,-60.121 79.73,-87.692 14.24,-13.769 28.97,-27.109 44.31,-39.847 7.66,-6.383 15.5,-12.61 23.53,-18.653 5.12,-3.808 10.04,-7.41 15.33,-11.046 -7.36,-75.352 -13.42,-140.25 -14.83,-163.114 -1.97,-32.129 14.86,-71.668 45.02,-105.789 18.84,-21.32 40.08,-37.551 60.74,-47.058 3.95,-3.352 8.73,-5.789 14.19,-6.52 l 0.17,-0.019 c 2.3,-0.313 4.64,-0.551 6.95,-0.852 4.47,-1.031 8.87,-1.781 13.14,-2.051 0.65,-0.039 1.31,-0.058 1.96,-0.058 0.4,0 0.76,0.089 1.16,0.109 16.47,-1.961 32.98,-3.75 49.69,-5.012 12.28,-0.937 24.66,-1.617 37.22,-1.929 6.29,-0.149 12.62,-0.188 19.1,-0.079 l 9.89,0.329 5.19,0.332 c 2.02,0.179 3.14,0.238 6.4,0.668 11.13,1.5 20.71,9.73 23.31,21.332 l 0.11,0.5 c 4.32,19.23 9.45,39.238 14.88,58.648 5.49,19.492 11.43,38.813 17.99,57.723 6.58,18.886 13.78,37.449 22.03,54.769 4.14,8.61 8.55,16.961 13.27,24.41 4.63,7.45 9.8,14.219 14.27,18.27 l 0.35,0.309 c 1.47,1.351 2.77,2.871 3.91,4.5 10.6,3.878 21.37,7.351 32.27,10.351 25.3,6.598 51.36,11.188 78.13,12.149 26.73,1.101 53.96,-0.731 81.4,-4.661 0.27,-0.039 0.53,-0.097 0.81,-0.148 10.42,-50.5 62.01,-101.27 110.62,-120.359 4.53,-4.161 10.34,-7.043 16.9,-7.493 l 0.16,-0.007 c 24.24,-1.672 48.58,-2.883 73.17,-3.204 12.29,-0.168 24.65,-0.089 37.18,0.352 6.27,0.219 12.59,0.559 19.02,1.039 l 9.81,0.891 c 3.63,0.422 6.12,0.648 11.39,1.609 11.03,2.02 20.19,10.723 22.17,22.422 l 0.1,0.648 c 3.12,18.493 7.05,37.86 11.28,56.621 4.29,18.86 9.03,37.559 14.43,55.872 5.41,18.289 11.45,36.277 18.58,53.046 1.11,2.59 2.3,5.071 3.47,7.59 8.4,1.742 16.82,3.391 25.29,4.774 23.08,3.738 46.18,7.097 69.42,8.918 23.23,1.789 46.48,2.57 69.74,2.742 25.97,0.238 51.94,-0.313 78.19,-1.102 19.07,-42.39 64.39,-81.738 106.52,-97.519 4.67,-4.219 10.68,-7.031 17.4,-7.34 l 0.17,0 c 24.26,-1.082 48.62,-1.672 73.21,-1.391 12.3,0.141 24.66,0.508 37.17,1.27 6.27,0.379 12.57,0.859 18.98,1.5 l 9.79,1.129 5.11,0.75 c 1.96,0.332 3.11,0.472 6.24,1.152 11,2.348 19.94,11.328 21.62,23.098 l 0.07,0.511 c 2.67,18.571 6.11,38.04 9.88,56.899 3.82,18.949 8.09,37.769 13.04,56.199 4.96,18.422 10.55,36.551 17.28,53.492 3.37,8.43 7.02,16.602 11.02,23.918 2.73,5.102 5.73,9.801 8.63,13.602 24.42,4.98 48.98,7.64 73.34,7.371 19.78,-0.02 39.22,-2.762 58.54,-5.941 9.55,-1.551 19.08,-3.219 28.79,-4.84 20.75,-36.231 59.65,-68.551 96.41,-82.852 4.8,-4.848 11.35,-8.047 18.65,-8.379 l 0.17,0 c 23.72,-1.051 47.52,-1.648 71.55,-1.359 12.03,0.129 24.1,0.5 36.35,1.238 6.11,0.371 12.28,0.852 18.56,1.473 l 9.58,1.109 c 3.56,0.5 5.96,0.781 11.15,1.852 10.98,2.289 19.91,11.226 21.6,22.968 l 0.08,0.649 c 2.6,18.121 5.97,37.133 9.65,55.519 3.72,18.512 7.9,36.891 12.73,54.883 4.83,17.969 10.29,35.668 16.84,52.18 3.28,8.211 6.86,16.168 10.74,23.289 3.79,7.109 8.13,13.55 11.93,17.42 l 0.37,0.39 c 3.36,3.5 5.64,7.9 6.82,12.66 17.21,5.79 34.54,10.99 52.06,14.95 10.03,2.61 20.13,4.92 30.23,7.07 3.52,0.94 7.05,1.68 10.59,2.46 0.05,-6.25 0.12,-11.41 0.22,-15.27 1.18,-47.84 43.1,-105.821 86.28,-129.219 4.77,-6.262 11.96,-10.602 20.41,-11.109 l 0.18,-0.012 c 19.48,-1.168 39.06,-1.891 58.94,-1.731 9.95,0.09 19.97,0.403 30.18,1.09 5.11,0.36 10.28,0.821 15.58,1.43 l 8.15,1.121 4.34,0.75 c 1.77,0.352 2.54,0.449 5.69,1.25 10.74,2.77 19.24,11.941 20.55,23.629 l 0.06,0.543 c 2.01,17.969 4.62,36.707 7.48,54.949 2.91,18.32 6.19,36.559 9.99,54.519 3.81,17.93 8.14,35.67 13.43,52.48 2.64,8.38 5.55,16.53 8.77,23.97 3.17,7.36 6.91,14.31 10.04,18.23 l 0.23,0.3 c 4.66,5.9 6.93,13.64 5.66,21.65" /><path
         id="path20"
         style="fill:#231f20;fill-opacity:1;fill-rule:nonzero;stroke:none"
         d="m 3711.06,5096.92 c -26.21,0 -47.47,-30.76 -47.47,-68.71 0,-29.84 13.18,-55.17 31.55,-64.66 1.6,-18.39 2.84,-36.92 3.82,-55.3 1.97,-37.8 2.72,-75.72 2.36,-113.66 -0.74,-75.88 -5.88,-151.89 -15.75,-227.32 -0.69,-5.28 2.87,-10.28 8.16,-11.28 5.49,-1.02 10.76,2.61 11.79,8.09 14.09,75.69 23.44,152.29 28.37,229.31 2.44,38.51 3.77,77.13 3.83,115.82 -0.01,20.47 -0.28,40.79 -1.02,61.23 13.12,12.22 21.83,33.51 21.83,57.77 0,37.95 -21.25,68.71 -47.47,68.71" /><path
         id="path22"
         style="fill:#231f20;fill-opacity:1;fill-rule:nonzero;stroke:none"
         d="m 1141.05,1861.11 c -1.36,3.37 -5,5.37 -8.66,4.54 -4.08,-0.92 -6.62,-4.96 -5.71,-9.04 l 40.69,-180.58 c 2.17,-9.71 11.17,-16.61 21.38,-15.86 l 1.73,0.13 187.39,13.74 1.75,0.12 c 2.26,0.18 4.54,0.72 6.75,1.67 10.77,4.63 15.76,17.13 11.12,27.9 l -65.74,152.96 c -1.87,4.38 -6.71,6.86 -11.46,5.63 -5.25,-1.36 -8.4,-6.71 -7.04,-11.97 l 34.52,-133.42 -144.3,-10.59 -62.42,154.77" /></g></g></svg>